<mxfile host="app.diagrams.net" modified="2021-06-29T15:40:52.616Z" agent="5.0 (Macintosh)" etag="rdUvpnOr4Kg_k_Gu99Gy" version="14.8.2" type="github">
  <diagram id="TXWxSDEi9ZpWuk9Qw1Dx" name="Page-1">
    <mxGraphModel dx="1946" dy="1626" grid="1" gridSize="10" guides="1" tooltips="1" connect="1" arrows="1" fold="1" page="1" pageScale="1" pageWidth="850" pageHeight="1100" math="0" shadow="0">
      <root>
        <mxCell id="0" />
        <mxCell id="1" parent="0" />
        <mxCell id="yqwSmFySM0pPCRr0p7oi-1" style="edgeStyle=orthogonalEdgeStyle;rounded=0;orthogonalLoop=1;jettySize=auto;html=1;entryX=0;entryY=0.5;entryDx=0;entryDy=0;startArrow=none;fillColor=#cce5ff;strokeColor=#36393d;" edge="1" parent="1" source="yqwSmFySM0pPCRr0p7oi-287" target="yqwSmFySM0pPCRr0p7oi-4">
          <mxGeometry relative="1" as="geometry">
            <mxPoint x="-360" y="400" as="sourcePoint" />
          </mxGeometry>
        </mxCell>
        <mxCell id="yqwSmFySM0pPCRr0p7oi-2" style="edgeStyle=orthogonalEdgeStyle;rounded=0;orthogonalLoop=1;jettySize=auto;html=1;entryX=0;entryY=0.5;entryDx=0;entryDy=0;fillColor=#cce5ff;strokeColor=#36393d;" edge="1" parent="1" source="yqwSmFySM0pPCRr0p7oi-4" target="yqwSmFySM0pPCRr0p7oi-25">
          <mxGeometry relative="1" as="geometry">
            <Array as="points">
              <mxPoint x="-140" y="20" />
            </Array>
          </mxGeometry>
        </mxCell>
        <mxCell id="yqwSmFySM0pPCRr0p7oi-3" style="edgeStyle=orthogonalEdgeStyle;rounded=0;orthogonalLoop=1;jettySize=auto;html=1;entryX=0.5;entryY=1;entryDx=0;entryDy=0;fillColor=#cce5ff;strokeColor=#36393d;" edge="1" parent="1" source="yqwSmFySM0pPCRr0p7oi-4" target="yqwSmFySM0pPCRr0p7oi-8">
          <mxGeometry relative="1" as="geometry">
            <Array as="points">
              <mxPoint x="-40" y="400" />
            </Array>
          </mxGeometry>
        </mxCell>
        <mxCell id="yqwSmFySM0pPCRr0p7oi-4" value="Basic Bouncing" style="whiteSpace=wrap;html=1;fillColor=#cce5ff;strokeColor=#36393d;" vertex="1" parent="1">
          <mxGeometry x="-200" y="370" width="120" height="60" as="geometry" />
        </mxCell>
        <mxCell id="yqwSmFySM0pPCRr0p7oi-5" value="" style="edgeStyle=orthogonalEdgeStyle;rounded=0;orthogonalLoop=1;jettySize=auto;html=1;fillColor=#cce5ff;strokeColor=#36393d;" edge="1" parent="1" source="yqwSmFySM0pPCRr0p7oi-8" target="yqwSmFySM0pPCRr0p7oi-30">
          <mxGeometry relative="1" as="geometry" />
        </mxCell>
        <mxCell id="yqwSmFySM0pPCRr0p7oi-6" value="" style="edgeStyle=orthogonalEdgeStyle;rounded=0;orthogonalLoop=1;jettySize=auto;html=1;fillColor=#cce5ff;strokeColor=#36393d;" edge="1" parent="1" source="yqwSmFySM0pPCRr0p7oi-8" target="yqwSmFySM0pPCRr0p7oi-39">
          <mxGeometry relative="1" as="geometry">
            <Array as="points">
              <mxPoint x="-40" y="540" />
            </Array>
          </mxGeometry>
        </mxCell>
        <mxCell id="yqwSmFySM0pPCRr0p7oi-7" style="edgeStyle=orthogonalEdgeStyle;rounded=0;orthogonalLoop=1;jettySize=auto;html=1;entryX=0;entryY=0.5;entryDx=0;entryDy=0;fillColor=#cce5ff;strokeColor=#36393d;" edge="1" parent="1" source="yqwSmFySM0pPCRr0p7oi-8" target="yqwSmFySM0pPCRr0p7oi-17">
          <mxGeometry relative="1" as="geometry">
            <Array as="points">
              <mxPoint x="-40" y="810" />
            </Array>
          </mxGeometry>
        </mxCell>
        <mxCell id="yqwSmFySM0pPCRr0p7oi-8" value="Seat Drop" style="whiteSpace=wrap;html=1;fillColor=#cce5ff;strokeColor=#36393d;" vertex="1" parent="1">
          <mxGeometry x="-100" y="80" width="120" height="60" as="geometry" />
        </mxCell>
        <mxCell id="yqwSmFySM0pPCRr0p7oi-9" value="" style="edgeStyle=orthogonalEdgeStyle;rounded=0;orthogonalLoop=1;jettySize=auto;html=1;fillColor=#cce5ff;strokeColor=#36393d;" edge="1" parent="1" source="yqwSmFySM0pPCRr0p7oi-17" target="yqwSmFySM0pPCRr0p7oi-42">
          <mxGeometry relative="1" as="geometry" />
        </mxCell>
        <mxCell id="yqwSmFySM0pPCRr0p7oi-10" style="edgeStyle=orthogonalEdgeStyle;rounded=0;orthogonalLoop=1;jettySize=auto;html=1;entryX=0;entryY=0.5;entryDx=0;entryDy=0;fillColor=#cce5ff;strokeColor=#36393d;" edge="1" parent="1" source="yqwSmFySM0pPCRr0p7oi-161" target="yqwSmFySM0pPCRr0p7oi-37">
          <mxGeometry relative="1" as="geometry">
            <Array as="points">
              <mxPoint x="400" y="850" />
            </Array>
          </mxGeometry>
        </mxCell>
        <mxCell id="yqwSmFySM0pPCRr0p7oi-11" style="edgeStyle=orthogonalEdgeStyle;rounded=0;orthogonalLoop=1;jettySize=auto;html=1;entryX=0;entryY=0.5;entryDx=0;entryDy=0;fillColor=#cce5ff;strokeColor=#36393d;" edge="1" parent="1" source="yqwSmFySM0pPCRr0p7oi-17" target="yqwSmFySM0pPCRr0p7oi-88">
          <mxGeometry relative="1" as="geometry">
            <Array as="points">
              <mxPoint x="220" y="610" />
            </Array>
          </mxGeometry>
        </mxCell>
        <mxCell id="yqwSmFySM0pPCRr0p7oi-12" value="" style="edgeStyle=orthogonalEdgeStyle;rounded=0;orthogonalLoop=1;jettySize=auto;html=1;fillColor=#cce5ff;strokeColor=#36393d;" edge="1" parent="1" source="yqwSmFySM0pPCRr0p7oi-17" target="yqwSmFySM0pPCRr0p7oi-161">
          <mxGeometry relative="1" as="geometry" />
        </mxCell>
        <mxCell id="yqwSmFySM0pPCRr0p7oi-13" style="edgeStyle=orthogonalEdgeStyle;rounded=0;orthogonalLoop=1;jettySize=auto;html=1;entryX=0.5;entryY=1;entryDx=0;entryDy=0;fillColor=#cce5ff;strokeColor=#36393d;" edge="1" parent="1" source="yqwSmFySM0pPCRr0p7oi-17" target="yqwSmFySM0pPCRr0p7oi-34">
          <mxGeometry relative="1" as="geometry">
            <Array as="points">
              <mxPoint x="220" y="890" />
              <mxPoint x="1020" y="890" />
            </Array>
          </mxGeometry>
        </mxCell>
        <mxCell id="yqwSmFySM0pPCRr0p7oi-14" style="edgeStyle=orthogonalEdgeStyle;rounded=0;orthogonalLoop=1;jettySize=auto;html=1;entryX=0;entryY=0.5;entryDx=0;entryDy=0;fillColor=#cce5ff;strokeColor=#36393d;" edge="1" parent="1" source="yqwSmFySM0pPCRr0p7oi-17" target="yqwSmFySM0pPCRr0p7oi-62">
          <mxGeometry relative="1" as="geometry">
            <Array as="points">
              <mxPoint x="220" y="930" />
            </Array>
          </mxGeometry>
        </mxCell>
        <mxCell id="yqwSmFySM0pPCRr0p7oi-15" style="edgeStyle=orthogonalEdgeStyle;rounded=0;orthogonalLoop=1;jettySize=auto;html=1;entryX=0;entryY=0.5;entryDx=0;entryDy=0;fillColor=#cce5ff;strokeColor=#36393d;" edge="1" parent="1" source="yqwSmFySM0pPCRr0p7oi-17" target="yqwSmFySM0pPCRr0p7oi-70">
          <mxGeometry relative="1" as="geometry" />
        </mxCell>
        <mxCell id="yqwSmFySM0pPCRr0p7oi-16" style="edgeStyle=orthogonalEdgeStyle;rounded=0;orthogonalLoop=1;jettySize=auto;html=1;entryX=0;entryY=0.5;entryDx=0;entryDy=0;fillColor=#cce5ff;strokeColor=#36393d;" edge="1" parent="1" source="yqwSmFySM0pPCRr0p7oi-17" target="yqwSmFySM0pPCRr0p7oi-345">
          <mxGeometry relative="1" as="geometry">
            <Array as="points">
              <mxPoint x="220" y="1080" />
            </Array>
          </mxGeometry>
        </mxCell>
        <mxCell id="yqwSmFySM0pPCRr0p7oi-17" value="Back Drop" style="whiteSpace=wrap;html=1;fillColor=#cce5ff;strokeColor=#36393d;" vertex="1" parent="1">
          <mxGeometry x="160" y="780" width="120" height="60" as="geometry" />
        </mxCell>
        <mxCell id="yqwSmFySM0pPCRr0p7oi-18" style="edgeStyle=orthogonalEdgeStyle;rounded=0;orthogonalLoop=1;jettySize=auto;html=1;entryX=0;entryY=0.5;entryDx=0;entryDy=0;fillColor=#cce5ff;strokeColor=#36393d;" edge="1" parent="1" source="yqwSmFySM0pPCRr0p7oi-22" target="yqwSmFySM0pPCRr0p7oi-358">
          <mxGeometry relative="1" as="geometry" />
        </mxCell>
        <mxCell id="yqwSmFySM0pPCRr0p7oi-19" style="edgeStyle=orthogonalEdgeStyle;rounded=0;orthogonalLoop=1;jettySize=auto;html=1;entryX=0;entryY=0.5;entryDx=0;entryDy=0;fillColor=#cce5ff;strokeColor=#36393d;" edge="1" parent="1" source="yqwSmFySM0pPCRr0p7oi-22" target="yqwSmFySM0pPCRr0p7oi-47">
          <mxGeometry relative="1" as="geometry" />
        </mxCell>
        <mxCell id="yqwSmFySM0pPCRr0p7oi-20" style="edgeStyle=orthogonalEdgeStyle;rounded=0;orthogonalLoop=1;jettySize=auto;html=1;entryX=0;entryY=0.5;entryDx=0;entryDy=0;fillColor=#cce5ff;strokeColor=#36393d;" edge="1" parent="1" source="yqwSmFySM0pPCRr0p7oi-22" target="yqwSmFySM0pPCRr0p7oi-67">
          <mxGeometry relative="1" as="geometry" />
        </mxCell>
        <mxCell id="yqwSmFySM0pPCRr0p7oi-21" value="" style="edgeStyle=orthogonalEdgeStyle;rounded=0;orthogonalLoop=1;jettySize=auto;html=1;fillColor=#cce5ff;strokeColor=#36393d;" edge="1" parent="1" source="yqwSmFySM0pPCRr0p7oi-22" target="yqwSmFySM0pPCRr0p7oi-354">
          <mxGeometry relative="1" as="geometry" />
        </mxCell>
        <mxCell id="yqwSmFySM0pPCRr0p7oi-22" value="Front Drop" style="whiteSpace=wrap;html=1;fillColor=#cce5ff;strokeColor=#36393d;" vertex="1" parent="1">
          <mxGeometry x="160" y="510" width="120" height="60" as="geometry" />
        </mxCell>
        <mxCell id="yqwSmFySM0pPCRr0p7oi-23" value="" style="edgeStyle=orthogonalEdgeStyle;rounded=0;orthogonalLoop=1;jettySize=auto;html=1;fillColor=#cce5ff;strokeColor=#36393d;" edge="1" parent="1" source="yqwSmFySM0pPCRr0p7oi-25" target="yqwSmFySM0pPCRr0p7oi-28">
          <mxGeometry relative="1" as="geometry" />
        </mxCell>
        <mxCell id="yqwSmFySM0pPCRr0p7oi-24" style="edgeStyle=orthogonalEdgeStyle;rounded=0;orthogonalLoop=1;jettySize=auto;html=1;entryX=0.5;entryY=0;entryDx=0;entryDy=0;fillColor=#cce5ff;strokeColor=#36393d;" edge="1" parent="1" source="yqwSmFySM0pPCRr0p7oi-25" target="yqwSmFySM0pPCRr0p7oi-30">
          <mxGeometry relative="1" as="geometry" />
        </mxCell>
        <mxCell id="yqwSmFySM0pPCRr0p7oi-25" value="Jump 1/2 Turn" style="whiteSpace=wrap;html=1;fillColor=#cce5ff;strokeColor=#36393d;" vertex="1" parent="1">
          <mxGeometry x="70" y="-10" width="120" height="60" as="geometry" />
        </mxCell>
        <mxCell id="yqwSmFySM0pPCRr0p7oi-26" value="" style="edgeStyle=orthogonalEdgeStyle;rounded=0;orthogonalLoop=1;jettySize=auto;html=1;fillColor=#cce5ff;strokeColor=#36393d;" edge="1" parent="1" source="yqwSmFySM0pPCRr0p7oi-28" target="yqwSmFySM0pPCRr0p7oi-45">
          <mxGeometry relative="1" as="geometry" />
        </mxCell>
        <mxCell id="yqwSmFySM0pPCRr0p7oi-27" style="edgeStyle=orthogonalEdgeStyle;rounded=0;orthogonalLoop=1;jettySize=auto;html=1;entryX=0.5;entryY=0;entryDx=0;entryDy=0;fillColor=#cce5ff;strokeColor=#36393d;" edge="1" parent="1" source="yqwSmFySM0pPCRr0p7oi-28" target="yqwSmFySM0pPCRr0p7oi-43">
          <mxGeometry relative="1" as="geometry" />
        </mxCell>
        <mxCell id="yqwSmFySM0pPCRr0p7oi-28" value="Jump 1/1 Turn" style="whiteSpace=wrap;html=1;fillColor=#cce5ff;strokeColor=#36393d;" vertex="1" parent="1">
          <mxGeometry x="290" y="-10" width="120" height="60" as="geometry" />
        </mxCell>
        <mxCell id="yqwSmFySM0pPCRr0p7oi-29" style="edgeStyle=orthogonalEdgeStyle;rounded=0;orthogonalLoop=1;jettySize=auto;html=1;entryX=0;entryY=0.5;entryDx=0;entryDy=0;fillColor=#cce5ff;strokeColor=#36393d;" edge="1" parent="1" source="yqwSmFySM0pPCRr0p7oi-30" target="yqwSmFySM0pPCRr0p7oi-43">
          <mxGeometry relative="1" as="geometry" />
        </mxCell>
        <mxCell id="yqwSmFySM0pPCRr0p7oi-30" value="Seat Drop 1/2 Turn to Seat Drop (Swivel Hips)" style="whiteSpace=wrap;html=1;fillColor=#cce5ff;strokeColor=#36393d;" vertex="1" parent="1">
          <mxGeometry x="70" y="80" width="120" height="60" as="geometry" />
        </mxCell>
        <mxCell id="yqwSmFySM0pPCRr0p7oi-31" style="edgeStyle=orthogonalEdgeStyle;rounded=0;orthogonalLoop=1;jettySize=auto;html=1;fillColor=#cce5ff;strokeColor=#36393d;" edge="1" parent="1" source="yqwSmFySM0pPCRr0p7oi-34" target="yqwSmFySM0pPCRr0p7oi-109">
          <mxGeometry relative="1" as="geometry">
            <Array as="points">
              <mxPoint x="1020" y="40" />
            </Array>
          </mxGeometry>
        </mxCell>
        <mxCell id="yqwSmFySM0pPCRr0p7oi-32" value="" style="edgeStyle=orthogonalEdgeStyle;rounded=0;orthogonalLoop=1;jettySize=auto;html=1;fillColor=#cce5ff;strokeColor=#36393d;" edge="1" parent="1" source="yqwSmFySM0pPCRr0p7oi-34" target="yqwSmFySM0pPCRr0p7oi-41">
          <mxGeometry relative="1" as="geometry" />
        </mxCell>
        <mxCell id="yqwSmFySM0pPCRr0p7oi-33" style="edgeStyle=orthogonalEdgeStyle;rounded=0;orthogonalLoop=1;jettySize=auto;html=1;entryX=0.5;entryY=0;entryDx=0;entryDy=0;fillColor=#cce5ff;strokeColor=#36393d;" edge="1" parent="1" source="yqwSmFySM0pPCRr0p7oi-34" target="yqwSmFySM0pPCRr0p7oi-115">
          <mxGeometry relative="1" as="geometry" />
        </mxCell>
        <mxCell id="yqwSmFySM0pPCRr0p7oi-34" value="3/4 Front" style="whiteSpace=wrap;html=1;fillColor=#cce5ff;strokeColor=#36393d;" vertex="1" parent="1">
          <mxGeometry x="960" y="320" width="120" height="60" as="geometry" />
        </mxCell>
        <mxCell id="yqwSmFySM0pPCRr0p7oi-35" style="edgeStyle=orthogonalEdgeStyle;rounded=0;orthogonalLoop=1;jettySize=auto;html=1;fillColor=#cce5ff;strokeColor=#36393d;" edge="1" parent="1" source="yqwSmFySM0pPCRr0p7oi-37">
          <mxGeometry relative="1" as="geometry">
            <mxPoint x="710" y="850" as="targetPoint" />
          </mxGeometry>
        </mxCell>
        <mxCell id="yqwSmFySM0pPCRr0p7oi-36" style="edgeStyle=orthogonalEdgeStyle;rounded=0;orthogonalLoop=1;jettySize=auto;html=1;entryX=0.5;entryY=1;entryDx=0;entryDy=0;fillColor=#cce5ff;strokeColor=#36393d;" edge="1" parent="1" source="yqwSmFySM0pPCRr0p7oi-37" target="yqwSmFySM0pPCRr0p7oi-88">
          <mxGeometry relative="1" as="geometry" />
        </mxCell>
        <mxCell id="yqwSmFySM0pPCRr0p7oi-37" value="1/2 Twist to Back Drop" style="whiteSpace=wrap;html=1;fillColor=#cce5ff;strokeColor=#36393d;" vertex="1" parent="1">
          <mxGeometry x="510" y="820" width="120" height="60" as="geometry" />
        </mxCell>
        <mxCell id="yqwSmFySM0pPCRr0p7oi-38" value="" style="edgeStyle=orthogonalEdgeStyle;rounded=0;orthogonalLoop=1;jettySize=auto;html=1;fillColor=#cce5ff;strokeColor=#36393d;" edge="1" parent="1" source="yqwSmFySM0pPCRr0p7oi-39" target="yqwSmFySM0pPCRr0p7oi-22">
          <mxGeometry relative="1" as="geometry" />
        </mxCell>
        <mxCell id="yqwSmFySM0pPCRr0p7oi-39" value="Hand and Knee Drop" style="whiteSpace=wrap;html=1;fillColor=#cce5ff;strokeColor=#36393d;" vertex="1" parent="1">
          <mxGeometry y="510" width="120" height="60" as="geometry" />
        </mxCell>
        <mxCell id="yqwSmFySM0pPCRr0p7oi-40" value="" style="edgeStyle=orthogonalEdgeStyle;rounded=0;orthogonalLoop=1;jettySize=auto;html=1;fillColor=#cce5ff;strokeColor=#36393d;" edge="1" parent="1" source="yqwSmFySM0pPCRr0p7oi-41" target="yqwSmFySM0pPCRr0p7oi-50">
          <mxGeometry relative="1" as="geometry" />
        </mxCell>
        <mxCell id="yqwSmFySM0pPCRr0p7oi-41" value="Front Tuck to Seat Drop" style="whiteSpace=wrap;html=1;fillColor=#cce5ff;strokeColor=#36393d;" vertex="1" parent="1">
          <mxGeometry x="1150" y="230" width="120" height="60" as="geometry" />
        </mxCell>
        <mxCell id="yqwSmFySM0pPCRr0p7oi-42" value="Back Drop 1/2 Twist to Feet" style="whiteSpace=wrap;html=1;fillColor=#cce5ff;strokeColor=#36393d;" vertex="1" parent="1">
          <mxGeometry x="350" y="750" width="120" height="60" as="geometry" />
        </mxCell>
        <mxCell id="yqwSmFySM0pPCRr0p7oi-43" value="Seat Drop 1/1 Turn to Seat Drop (Roller)" style="whiteSpace=wrap;html=1;fillColor=#cce5ff;strokeColor=#36393d;" vertex="1" parent="1">
          <mxGeometry x="290" y="80" width="120" height="60" as="geometry" />
        </mxCell>
        <mxCell id="yqwSmFySM0pPCRr0p7oi-44" value="" style="edgeStyle=orthogonalEdgeStyle;rounded=0;orthogonalLoop=1;jettySize=auto;html=1;fillColor=#cce5ff;strokeColor=#36393d;" edge="1" parent="1" source="yqwSmFySM0pPCRr0p7oi-45" target="yqwSmFySM0pPCRr0p7oi-86">
          <mxGeometry relative="1" as="geometry" />
        </mxCell>
        <mxCell id="yqwSmFySM0pPCRr0p7oi-45" value="Jump 3/2 Turn" style="whiteSpace=wrap;html=1;fillColor=#cce5ff;strokeColor=#36393d;" vertex="1" parent="1">
          <mxGeometry x="440" y="-10" width="120" height="60" as="geometry" />
        </mxCell>
        <mxCell id="yqwSmFySM0pPCRr0p7oi-46" value="" style="edgeStyle=orthogonalEdgeStyle;rounded=0;orthogonalLoop=1;jettySize=auto;html=1;fillColor=#cce5ff;strokeColor=#36393d;" edge="1" parent="1" source="yqwSmFySM0pPCRr0p7oi-47" target="yqwSmFySM0pPCRr0p7oi-88">
          <mxGeometry relative="1" as="geometry" />
        </mxCell>
        <mxCell id="yqwSmFySM0pPCRr0p7oi-47" value="1/2 Airplane" style="whiteSpace=wrap;html=1;fillColor=#cce5ff;strokeColor=#36393d;" vertex="1" parent="1">
          <mxGeometry x="340" y="510" width="120" height="60" as="geometry" />
        </mxCell>
        <mxCell id="yqwSmFySM0pPCRr0p7oi-48" value="" style="edgeStyle=orthogonalEdgeStyle;rounded=0;orthogonalLoop=1;jettySize=auto;html=1;fillColor=#cce5ff;strokeColor=#36393d;" edge="1" parent="1" source="yqwSmFySM0pPCRr0p7oi-50" target="yqwSmFySM0pPCRr0p7oi-85">
          <mxGeometry relative="1" as="geometry" />
        </mxCell>
        <mxCell id="yqwSmFySM0pPCRr0p7oi-49" style="edgeStyle=orthogonalEdgeStyle;rounded=0;orthogonalLoop=1;jettySize=auto;html=1;fillColor=#cce5ff;strokeColor=#36393d;" edge="1" parent="1" source="yqwSmFySM0pPCRr0p7oi-50" target="yqwSmFySM0pPCRr0p7oi-117">
          <mxGeometry relative="1" as="geometry" />
        </mxCell>
        <mxCell id="yqwSmFySM0pPCRr0p7oi-50" value="Front Tuck" style="whiteSpace=wrap;html=1;fillColor=#cce5ff;strokeColor=#36393d;" vertex="1" parent="1">
          <mxGeometry x="1330" y="230" width="120" height="60" as="geometry" />
        </mxCell>
        <mxCell id="yqwSmFySM0pPCRr0p7oi-51" style="edgeStyle=orthogonalEdgeStyle;rounded=0;orthogonalLoop=1;jettySize=auto;html=1;entryX=0.5;entryY=0;entryDx=0;entryDy=0;fillColor=#cce5ff;strokeColor=#36393d;" edge="1" parent="1" source="yqwSmFySM0pPCRr0p7oi-52" target="yqwSmFySM0pPCRr0p7oi-163">
          <mxGeometry relative="1" as="geometry" />
        </mxCell>
        <mxCell id="yqwSmFySM0pPCRr0p7oi-52" value="Front Tuck With 1/2 Twist (Tucked Barani)" style="whiteSpace=wrap;html=1;fillColor=#cce5ff;strokeColor=#36393d;" vertex="1" parent="1">
          <mxGeometry x="1496" y="490" width="120" height="60" as="geometry" />
        </mxCell>
        <mxCell id="yqwSmFySM0pPCRr0p7oi-53" value="Front Tuck With 1/1 Twist" style="whiteSpace=wrap;html=1;fillColor=#cce5ff;strokeColor=#36393d;" vertex="1" parent="1">
          <mxGeometry x="1872" y="350" width="120" height="60" as="geometry" />
        </mxCell>
        <mxCell id="yqwSmFySM0pPCRr0p7oi-54" value="" style="edgeStyle=orthogonalEdgeStyle;rounded=0;orthogonalLoop=1;jettySize=auto;html=1;fillColor=#cce5ff;strokeColor=#36393d;" edge="1" parent="1" source="yqwSmFySM0pPCRr0p7oi-56" target="yqwSmFySM0pPCRr0p7oi-57">
          <mxGeometry relative="1" as="geometry" />
        </mxCell>
        <mxCell id="yqwSmFySM0pPCRr0p7oi-55" value="" style="edgeStyle=orthogonalEdgeStyle;rounded=0;orthogonalLoop=1;jettySize=auto;html=1;fillColor=#cce5ff;strokeColor=#36393d;" edge="1" parent="1" source="yqwSmFySM0pPCRr0p7oi-56" target="yqwSmFySM0pPCRr0p7oi-132">
          <mxGeometry relative="1" as="geometry" />
        </mxCell>
        <mxCell id="yqwSmFySM0pPCRr0p7oi-56" value="Front Pike With 1/2 Twist&amp;nbsp;" style="whiteSpace=wrap;html=1;fillColor=#cce5ff;strokeColor=#36393d;" vertex="1" parent="1">
          <mxGeometry x="1660" y="110" width="120" height="60" as="geometry" />
        </mxCell>
        <mxCell id="yqwSmFySM0pPCRr0p7oi-57" value="Front Pike With 1/1 Twist" style="whiteSpace=wrap;html=1;fillColor=#cce5ff;strokeColor=#36393d;" vertex="1" parent="1">
          <mxGeometry x="1870" y="110" width="120" height="60" as="geometry" />
        </mxCell>
        <mxCell id="yqwSmFySM0pPCRr0p7oi-58" value="" style="edgeStyle=orthogonalEdgeStyle;rounded=0;orthogonalLoop=1;jettySize=auto;html=1;fillColor=#cce5ff;strokeColor=#36393d;" edge="1" parent="1" source="yqwSmFySM0pPCRr0p7oi-60" target="yqwSmFySM0pPCRr0p7oi-90">
          <mxGeometry relative="1" as="geometry" />
        </mxCell>
        <mxCell id="yqwSmFySM0pPCRr0p7oi-59" value="" style="edgeStyle=orthogonalEdgeStyle;rounded=0;orthogonalLoop=1;jettySize=auto;html=1;fillColor=#cce5ff;strokeColor=#36393d;" edge="1" parent="1" source="yqwSmFySM0pPCRr0p7oi-60" target="yqwSmFySM0pPCRr0p7oi-94">
          <mxGeometry relative="1" as="geometry" />
        </mxCell>
        <mxCell id="yqwSmFySM0pPCRr0p7oi-60" value="Front Layout" style="whiteSpace=wrap;html=1;fillColor=#cce5ff;strokeColor=#36393d;" vertex="1" parent="1">
          <mxGeometry x="1710" y="230" width="120" height="60" as="geometry" />
        </mxCell>
        <mxCell id="yqwSmFySM0pPCRr0p7oi-61" value="" style="edgeStyle=orthogonalEdgeStyle;rounded=0;orthogonalLoop=1;jettySize=auto;html=1;fillColor=#cce5ff;strokeColor=#36393d;" edge="1" parent="1" source="yqwSmFySM0pPCRr0p7oi-62" target="yqwSmFySM0pPCRr0p7oi-78">
          <mxGeometry relative="1" as="geometry" />
        </mxCell>
        <mxCell id="yqwSmFySM0pPCRr0p7oi-62" value="Back Pull Over Tucked" style="whiteSpace=wrap;html=1;fillColor=#cce5ff;strokeColor=#36393d;" vertex="1" parent="1">
          <mxGeometry x="530" y="900" width="120" height="60" as="geometry" />
        </mxCell>
        <mxCell id="yqwSmFySM0pPCRr0p7oi-63" value="" style="edgeStyle=orthogonalEdgeStyle;rounded=0;orthogonalLoop=1;jettySize=auto;html=1;fillColor=#cce5ff;strokeColor=#36393d;" edge="1" parent="1" source="yqwSmFySM0pPCRr0p7oi-65" target="yqwSmFySM0pPCRr0p7oi-80">
          <mxGeometry relative="1" as="geometry" />
        </mxCell>
        <mxCell id="yqwSmFySM0pPCRr0p7oi-64" style="edgeStyle=orthogonalEdgeStyle;rounded=0;orthogonalLoop=1;jettySize=auto;html=1;entryX=0.5;entryY=0;entryDx=0;entryDy=0;fillColor=#cce5ff;strokeColor=#36393d;" edge="1" parent="1" source="yqwSmFySM0pPCRr0p7oi-65" target="yqwSmFySM0pPCRr0p7oi-345">
          <mxGeometry relative="1" as="geometry" />
        </mxCell>
        <mxCell id="yqwSmFySM0pPCRr0p7oi-65" value="Back Tuck" style="whiteSpace=wrap;html=1;fillColor=#cce5ff;strokeColor=#36393d;" vertex="1" parent="1">
          <mxGeometry x="830" y="900" width="120" height="60" as="geometry" />
        </mxCell>
        <mxCell id="yqwSmFySM0pPCRr0p7oi-66" value="" style="edgeStyle=orthogonalEdgeStyle;rounded=0;orthogonalLoop=1;jettySize=auto;html=1;fillColor=#cce5ff;strokeColor=#36393d;" edge="1" parent="1" source="yqwSmFySM0pPCRr0p7oi-67" target="yqwSmFySM0pPCRr0p7oi-76">
          <mxGeometry relative="1" as="geometry" />
        </mxCell>
        <mxCell id="yqwSmFySM0pPCRr0p7oi-67" value="Front Drop 1/4 Turn to Feet" style="whiteSpace=wrap;html=1;fillColor=#cce5ff;strokeColor=#36393d;" vertex="1" parent="1">
          <mxGeometry x="350" y="340" width="120" height="60" as="geometry" />
        </mxCell>
        <mxCell id="yqwSmFySM0pPCRr0p7oi-68" value="" style="edgeStyle=orthogonalEdgeStyle;rounded=0;orthogonalLoop=1;jettySize=auto;html=1;fillColor=#cce5ff;strokeColor=#36393d;" edge="1" parent="1" source="yqwSmFySM0pPCRr0p7oi-358" target="yqwSmFySM0pPCRr0p7oi-76">
          <mxGeometry relative="1" as="geometry" />
        </mxCell>
        <mxCell id="yqwSmFySM0pPCRr0p7oi-69" value="" style="edgeStyle=orthogonalEdgeStyle;rounded=0;orthogonalLoop=1;jettySize=auto;html=1;fillColor=#cce5ff;strokeColor=#36393d;" edge="1" parent="1" source="yqwSmFySM0pPCRr0p7oi-70" target="yqwSmFySM0pPCRr0p7oi-160">
          <mxGeometry relative="1" as="geometry" />
        </mxCell>
        <mxCell id="yqwSmFySM0pPCRr0p7oi-70" value="Consecutive Back Drops (Needle)" style="whiteSpace=wrap;html=1;fillColor=#cce5ff;strokeColor=#36393d;" vertex="1" parent="1">
          <mxGeometry x="270" y="670" width="120" height="60" as="geometry" />
        </mxCell>
        <mxCell id="yqwSmFySM0pPCRr0p7oi-71" style="edgeStyle=orthogonalEdgeStyle;rounded=0;orthogonalLoop=1;jettySize=auto;html=1;entryX=0.5;entryY=1;entryDx=0;entryDy=0;fillColor=#cce5ff;strokeColor=#36393d;" edge="1" parent="1" source="yqwSmFySM0pPCRr0p7oi-72" target="yqwSmFySM0pPCRr0p7oi-159">
          <mxGeometry relative="1" as="geometry" />
        </mxCell>
        <mxCell id="yqwSmFySM0pPCRr0p7oi-72" value="Back Drop 1/2 Twist to Back Drop (Cradle)" style="whiteSpace=wrap;html=1;fillColor=#cce5ff;strokeColor=#36393d;" vertex="1" parent="1">
          <mxGeometry x="830" y="820" width="120" height="60" as="geometry" />
        </mxCell>
        <mxCell id="yqwSmFySM0pPCRr0p7oi-73" value="" style="edgeStyle=orthogonalEdgeStyle;rounded=0;orthogonalLoop=1;jettySize=auto;html=1;fillColor=#cce5ff;strokeColor=#36393d;" edge="1" parent="1" source="yqwSmFySM0pPCRr0p7oi-74" target="yqwSmFySM0pPCRr0p7oi-52">
          <mxGeometry relative="1" as="geometry" />
        </mxCell>
        <mxCell id="yqwSmFySM0pPCRr0p7oi-74" value="Knee Barani With Hands" style="whiteSpace=wrap;html=1;fillColor=#cce5ff;strokeColor=#36393d;" vertex="1" parent="1">
          <mxGeometry x="1496" y="360" width="120" height="60" as="geometry" />
        </mxCell>
        <mxCell id="yqwSmFySM0pPCRr0p7oi-75" value="" style="edgeStyle=orthogonalEdgeStyle;rounded=0;orthogonalLoop=1;jettySize=auto;html=1;fillColor=#cce5ff;strokeColor=#36393d;" edge="1" parent="1" source="yqwSmFySM0pPCRr0p7oi-76" target="yqwSmFySM0pPCRr0p7oi-98">
          <mxGeometry relative="1" as="geometry" />
        </mxCell>
        <mxCell id="yqwSmFySM0pPCRr0p7oi-76" value="Front Drop 1/2 Turn to Front Drop &lt;br&gt;(Cruise)" style="whiteSpace=wrap;html=1;fillColor=#cce5ff;strokeColor=#36393d;" vertex="1" parent="1">
          <mxGeometry x="500" y="340" width="120" height="60" as="geometry" />
        </mxCell>
        <mxCell id="yqwSmFySM0pPCRr0p7oi-77" value="" style="edgeStyle=orthogonalEdgeStyle;rounded=0;orthogonalLoop=1;jettySize=auto;html=1;fillColor=#cce5ff;strokeColor=#36393d;" edge="1" parent="1" source="yqwSmFySM0pPCRr0p7oi-78" target="yqwSmFySM0pPCRr0p7oi-65">
          <mxGeometry relative="1" as="geometry" />
        </mxCell>
        <mxCell id="yqwSmFySM0pPCRr0p7oi-78" value="Back Pull Over Piked" style="whiteSpace=wrap;html=1;fillColor=#cce5ff;strokeColor=#36393d;" vertex="1" parent="1">
          <mxGeometry x="670" y="900" width="120" height="60" as="geometry" />
        </mxCell>
        <mxCell id="yqwSmFySM0pPCRr0p7oi-79" style="edgeStyle=orthogonalEdgeStyle;rounded=0;orthogonalLoop=1;jettySize=auto;html=1;entryX=0;entryY=0.5;entryDx=0;entryDy=0;fillColor=#cce5ff;strokeColor=#36393d;" edge="1" parent="1" source="yqwSmFySM0pPCRr0p7oi-80" target="yqwSmFySM0pPCRr0p7oi-113">
          <mxGeometry relative="1" as="geometry">
            <Array as="points">
              <mxPoint x="1040" y="1030" />
            </Array>
          </mxGeometry>
        </mxCell>
        <mxCell id="yqwSmFySM0pPCRr0p7oi-80" value="Back Pike" style="whiteSpace=wrap;html=1;fillColor=#cce5ff;strokeColor=#36393d;" vertex="1" parent="1">
          <mxGeometry x="980" y="900" width="120" height="60" as="geometry" />
        </mxCell>
        <mxCell id="yqwSmFySM0pPCRr0p7oi-81" style="edgeStyle=orthogonalEdgeStyle;rounded=0;orthogonalLoop=1;jettySize=auto;html=1;entryX=0;entryY=0.5;entryDx=0;entryDy=0;fillColor=#cce5ff;strokeColor=#36393d;" edge="1" parent="1" source="yqwSmFySM0pPCRr0p7oi-85" target="yqwSmFySM0pPCRr0p7oi-60">
          <mxGeometry relative="1" as="geometry" />
        </mxCell>
        <mxCell id="yqwSmFySM0pPCRr0p7oi-82" value="" style="edgeStyle=orthogonalEdgeStyle;rounded=0;orthogonalLoop=1;jettySize=auto;html=1;fillColor=#cce5ff;strokeColor=#36393d;" edge="1" parent="1" source="yqwSmFySM0pPCRr0p7oi-85" target="yqwSmFySM0pPCRr0p7oi-74">
          <mxGeometry relative="1" as="geometry" />
        </mxCell>
        <mxCell id="yqwSmFySM0pPCRr0p7oi-83" style="edgeStyle=orthogonalEdgeStyle;rounded=0;orthogonalLoop=1;jettySize=auto;html=1;entryX=0;entryY=0.5;entryDx=0;entryDy=0;fillColor=#cce5ff;strokeColor=#36393d;" edge="1" parent="1" source="yqwSmFySM0pPCRr0p7oi-85" target="yqwSmFySM0pPCRr0p7oi-56">
          <mxGeometry relative="1" as="geometry">
            <Array as="points">
              <mxPoint x="1610" y="140" />
            </Array>
          </mxGeometry>
        </mxCell>
        <mxCell id="yqwSmFySM0pPCRr0p7oi-84" style="edgeStyle=orthogonalEdgeStyle;rounded=0;orthogonalLoop=1;jettySize=auto;html=1;fillColor=#cce5ff;strokeColor=#36393d;" edge="1" parent="1" source="yqwSmFySM0pPCRr0p7oi-85" target="yqwSmFySM0pPCRr0p7oi-136">
          <mxGeometry relative="1" as="geometry" />
        </mxCell>
        <mxCell id="yqwSmFySM0pPCRr0p7oi-85" value="Front Pike" style="whiteSpace=wrap;html=1;fillColor=#cce5ff;strokeColor=#36393d;" vertex="1" parent="1">
          <mxGeometry x="1496" y="230" width="120" height="60" as="geometry" />
        </mxCell>
        <mxCell id="yqwSmFySM0pPCRr0p7oi-86" value="Jump 2/1 Turn" style="whiteSpace=wrap;html=1;fillColor=#cce5ff;strokeColor=#36393d;" vertex="1" parent="1">
          <mxGeometry x="580" y="-10" width="120" height="60" as="geometry" />
        </mxCell>
        <mxCell id="yqwSmFySM0pPCRr0p7oi-87" style="edgeStyle=orthogonalEdgeStyle;rounded=0;orthogonalLoop=1;jettySize=auto;html=1;entryX=0;entryY=0.5;entryDx=0;entryDy=0;fillColor=#cce5ff;strokeColor=#36393d;" edge="1" parent="1" source="yqwSmFySM0pPCRr0p7oi-88" target="yqwSmFySM0pPCRr0p7oi-141">
          <mxGeometry relative="1" as="geometry" />
        </mxCell>
        <mxCell id="yqwSmFySM0pPCRr0p7oi-88" value="1/1 Twist to Back Drop (Airplane)" style="whiteSpace=wrap;html=1;fillColor=#cce5ff;strokeColor=#36393d;" vertex="1" parent="1">
          <mxGeometry x="500" y="580" width="120" height="60" as="geometry" />
        </mxCell>
        <mxCell id="yqwSmFySM0pPCRr0p7oi-89" style="edgeStyle=orthogonalEdgeStyle;rounded=0;orthogonalLoop=1;jettySize=auto;html=1;entryX=0;entryY=0.5;entryDx=0;entryDy=0;fillColor=#cce5ff;strokeColor=#36393d;" edge="1" parent="1" source="yqwSmFySM0pPCRr0p7oi-90" target="yqwSmFySM0pPCRr0p7oi-138">
          <mxGeometry relative="1" as="geometry">
            <Array as="points">
              <mxPoint x="1770" y="460" />
            </Array>
          </mxGeometry>
        </mxCell>
        <mxCell id="yqwSmFySM0pPCRr0p7oi-90" value="Front Layout (Open Shape)" style="whiteSpace=wrap;html=1;fillColor=#cce5ff;strokeColor=#36393d;" vertex="1" parent="1">
          <mxGeometry x="1710" y="360" width="120" height="60" as="geometry" />
        </mxCell>
        <mxCell id="yqwSmFySM0pPCRr0p7oi-91" value="" style="edgeStyle=orthogonalEdgeStyle;rounded=0;orthogonalLoop=1;jettySize=auto;html=1;fillColor=#cce5ff;strokeColor=#36393d;" edge="1" parent="1" source="yqwSmFySM0pPCRr0p7oi-94" target="yqwSmFySM0pPCRr0p7oi-129">
          <mxGeometry relative="1" as="geometry" />
        </mxCell>
        <mxCell id="yqwSmFySM0pPCRr0p7oi-92" value="" style="edgeStyle=orthogonalEdgeStyle;rounded=0;orthogonalLoop=1;jettySize=auto;html=1;fillColor=#cce5ff;strokeColor=#36393d;" edge="1" parent="1" source="yqwSmFySM0pPCRr0p7oi-94" target="yqwSmFySM0pPCRr0p7oi-53">
          <mxGeometry relative="1" as="geometry" />
        </mxCell>
        <mxCell id="yqwSmFySM0pPCRr0p7oi-93" style="edgeStyle=orthogonalEdgeStyle;rounded=0;orthogonalLoop=1;jettySize=auto;html=1;entryX=0;entryY=0.5;entryDx=0;entryDy=0;fillColor=#cce5ff;strokeColor=#36393d;" edge="1" parent="1" source="yqwSmFySM0pPCRr0p7oi-94" target="yqwSmFySM0pPCRr0p7oi-153">
          <mxGeometry relative="1" as="geometry">
            <Array as="points">
              <mxPoint x="1932" y="190" />
            </Array>
          </mxGeometry>
        </mxCell>
        <mxCell id="yqwSmFySM0pPCRr0p7oi-94" value="Front Layout With 1/2 Twist (Barani)" style="whiteSpace=wrap;html=1;fillColor=#cce5ff;strokeColor=#36393d;" vertex="1" parent="1">
          <mxGeometry x="1872" y="230" width="120" height="60" as="geometry" />
        </mxCell>
        <mxCell id="yqwSmFySM0pPCRr0p7oi-95" value="" style="edgeStyle=orthogonalEdgeStyle;rounded=0;orthogonalLoop=1;jettySize=auto;html=1;fillColor=#cce5ff;strokeColor=#36393d;" edge="1" parent="1" source="yqwSmFySM0pPCRr0p7oi-96" target="yqwSmFySM0pPCRr0p7oi-105">
          <mxGeometry relative="1" as="geometry" />
        </mxCell>
        <mxCell id="yqwSmFySM0pPCRr0p7oi-96" value="1 &amp;amp; l1/4 Back Tuck" style="whiteSpace=wrap;html=1;fillColor=#cce5ff;strokeColor=#36393d;" vertex="1" parent="1">
          <mxGeometry x="1330" y="1200" width="120" height="60" as="geometry" />
        </mxCell>
        <mxCell id="yqwSmFySM0pPCRr0p7oi-97" value="" style="edgeStyle=orthogonalEdgeStyle;rounded=0;orthogonalLoop=1;jettySize=auto;html=1;fillColor=#cce5ff;strokeColor=#36393d;" edge="1" parent="1" source="yqwSmFySM0pPCRr0p7oi-98" target="yqwSmFySM0pPCRr0p7oi-100">
          <mxGeometry relative="1" as="geometry" />
        </mxCell>
        <mxCell id="yqwSmFySM0pPCRr0p7oi-98" value="3/4 Back to Hands and Knees" style="whiteSpace=wrap;html=1;fillColor=#cce5ff;strokeColor=#36393d;" vertex="1" parent="1">
          <mxGeometry x="730" y="160" width="120" height="60" as="geometry" />
        </mxCell>
        <mxCell id="yqwSmFySM0pPCRr0p7oi-99" style="edgeStyle=orthogonalEdgeStyle;rounded=0;orthogonalLoop=1;jettySize=auto;html=1;entryX=0;entryY=0.5;entryDx=0;entryDy=0;fillColor=#cce5ff;strokeColor=#36393d;" edge="1" parent="1" source="yqwSmFySM0pPCRr0p7oi-100" target="yqwSmFySM0pPCRr0p7oi-134">
          <mxGeometry relative="1" as="geometry" />
        </mxCell>
        <mxCell id="yqwSmFySM0pPCRr0p7oi-100" value="3/4 Back to Stomach" style="whiteSpace=wrap;html=1;fillColor=#cce5ff;strokeColor=#36393d;" vertex="1" parent="1">
          <mxGeometry x="730" y="-10" width="120" height="60" as="geometry" />
        </mxCell>
        <mxCell id="yqwSmFySM0pPCRr0p7oi-101" value="" style="edgeStyle=orthogonalEdgeStyle;rounded=0;orthogonalLoop=1;jettySize=auto;html=1;fillColor=#cce5ff;strokeColor=#36393d;" edge="1" parent="1" source="yqwSmFySM0pPCRr0p7oi-102" target="yqwSmFySM0pPCRr0p7oi-107">
          <mxGeometry relative="1" as="geometry" />
        </mxCell>
        <mxCell id="yqwSmFySM0pPCRr0p7oi-102" value="1 &amp;amp; 1/4 Back Pike" style="whiteSpace=wrap;html=1;fillColor=#cce5ff;strokeColor=#36393d;" vertex="1" parent="1">
          <mxGeometry x="1496" y="1330" width="120" height="60" as="geometry" />
        </mxCell>
        <mxCell id="yqwSmFySM0pPCRr0p7oi-103" style="edgeStyle=orthogonalEdgeStyle;rounded=0;orthogonalLoop=1;jettySize=auto;html=1;entryX=0;entryY=0.5;entryDx=0;entryDy=0;fillColor=#cce5ff;strokeColor=#36393d;" edge="1" parent="1" source="yqwSmFySM0pPCRr0p7oi-105" target="yqwSmFySM0pPCRr0p7oi-226">
          <mxGeometry relative="1" as="geometry" />
        </mxCell>
        <mxCell id="yqwSmFySM0pPCRr0p7oi-104" value="" style="edgeStyle=orthogonalEdgeStyle;rounded=0;orthogonalLoop=1;jettySize=auto;html=1;fillColor=#cce5ff;strokeColor=#36393d;" edge="1" parent="1" source="yqwSmFySM0pPCRr0p7oi-105" target="yqwSmFySM0pPCRr0p7oi-102">
          <mxGeometry relative="1" as="geometry" />
        </mxCell>
        <mxCell id="yqwSmFySM0pPCRr0p7oi-105" value="Double Back Tucked&lt;br&gt;" style="whiteSpace=wrap;html=1;fillColor=#cce5ff;strokeColor=#36393d;" vertex="1" parent="1">
          <mxGeometry x="1496" y="1200" width="120" height="60" as="geometry" />
        </mxCell>
        <mxCell id="yqwSmFySM0pPCRr0p7oi-106" style="edgeStyle=orthogonalEdgeStyle;rounded=0;orthogonalLoop=1;jettySize=auto;html=1;entryX=0;entryY=0.5;entryDx=0;entryDy=0;fillColor=#cce5ff;strokeColor=#36393d;" edge="1" parent="1" source="yqwSmFySM0pPCRr0p7oi-107" target="yqwSmFySM0pPCRr0p7oi-189">
          <mxGeometry relative="1" as="geometry" />
        </mxCell>
        <mxCell id="yqwSmFySM0pPCRr0p7oi-107" value="Double Back Pike" style="whiteSpace=wrap;html=1;fillColor=#cce5ff;strokeColor=#36393d;" vertex="1" parent="1">
          <mxGeometry x="1806" y="1330" width="120" height="60" as="geometry" />
        </mxCell>
        <mxCell id="yqwSmFySM0pPCRr0p7oi-108" value="" style="edgeStyle=orthogonalEdgeStyle;rounded=0;orthogonalLoop=1;jettySize=auto;html=1;fillColor=#cce5ff;strokeColor=#36393d;" edge="1" parent="1" source="yqwSmFySM0pPCRr0p7oi-109" target="yqwSmFySM0pPCRr0p7oi-117">
          <mxGeometry relative="1" as="geometry" />
        </mxCell>
        <mxCell id="yqwSmFySM0pPCRr0p7oi-109" value="Back Drop Front Somersault to Back Drop (Porpoise)" style="whiteSpace=wrap;html=1;fillColor=#cce5ff;strokeColor=#36393d;" vertex="1" parent="1">
          <mxGeometry x="1160" y="11" width="120" height="60" as="geometry" />
        </mxCell>
        <mxCell id="yqwSmFySM0pPCRr0p7oi-110" value="" style="edgeStyle=orthogonalEdgeStyle;rounded=0;orthogonalLoop=1;jettySize=auto;html=1;fillColor=#cce5ff;strokeColor=#36393d;" edge="1" parent="1" source="yqwSmFySM0pPCRr0p7oi-113" target="yqwSmFySM0pPCRr0p7oi-120">
          <mxGeometry relative="1" as="geometry" />
        </mxCell>
        <mxCell id="yqwSmFySM0pPCRr0p7oi-111" value="" style="edgeStyle=orthogonalEdgeStyle;rounded=0;orthogonalLoop=1;jettySize=auto;html=1;fillColor=#cce5ff;strokeColor=#36393d;" edge="1" parent="1" source="yqwSmFySM0pPCRr0p7oi-113" target="yqwSmFySM0pPCRr0p7oi-123">
          <mxGeometry relative="1" as="geometry" />
        </mxCell>
        <mxCell id="yqwSmFySM0pPCRr0p7oi-112" style="edgeStyle=orthogonalEdgeStyle;rounded=0;orthogonalLoop=1;jettySize=auto;html=1;entryX=0.5;entryY=0;entryDx=0;entryDy=0;fillColor=#cce5ff;strokeColor=#36393d;" edge="1" parent="1" source="yqwSmFySM0pPCRr0p7oi-113" target="yqwSmFySM0pPCRr0p7oi-96">
          <mxGeometry relative="1" as="geometry" />
        </mxCell>
        <mxCell id="yqwSmFySM0pPCRr0p7oi-113" value="Back Layout" style="whiteSpace=wrap;html=1;fillColor=#cce5ff;strokeColor=#36393d;" vertex="1" parent="1">
          <mxGeometry x="1330" y="1000" width="120" height="60" as="geometry" />
        </mxCell>
        <mxCell id="yqwSmFySM0pPCRr0p7oi-114" value="" style="edgeStyle=orthogonalEdgeStyle;rounded=0;orthogonalLoop=1;jettySize=auto;html=1;fillColor=#cce5ff;strokeColor=#36393d;" edge="1" parent="1" source="yqwSmFySM0pPCRr0p7oi-115" target="yqwSmFySM0pPCRr0p7oi-250">
          <mxGeometry relative="1" as="geometry" />
        </mxCell>
        <mxCell id="yqwSmFySM0pPCRr0p7oi-115" value="3/4 Back Layout With Early 1/2 Turn To Back (Arabian 3/4)" style="whiteSpace=wrap;html=1;fillColor=#cce5ff;strokeColor=#36393d;" vertex="1" parent="1">
          <mxGeometry x="1400" y="640" width="120" height="60" as="geometry" />
        </mxCell>
        <mxCell id="yqwSmFySM0pPCRr0p7oi-116" value="" style="edgeStyle=orthogonalEdgeStyle;rounded=0;orthogonalLoop=1;jettySize=auto;html=1;fillColor=#cce5ff;strokeColor=#36393d;" edge="1" parent="1" source="yqwSmFySM0pPCRr0p7oi-117" target="yqwSmFySM0pPCRr0p7oi-136">
          <mxGeometry relative="1" as="geometry" />
        </mxCell>
        <mxCell id="yqwSmFySM0pPCRr0p7oi-117" value="Back Drop 1&amp;amp; 1/4 Front Tuck to Feet (Ballout)" style="whiteSpace=wrap;html=1;fillColor=#cce5ff;strokeColor=#36393d;" vertex="1" parent="1">
          <mxGeometry x="1330" y="11" width="120" height="60" as="geometry" />
        </mxCell>
        <mxCell id="yqwSmFySM0pPCRr0p7oi-118" value="" style="edgeStyle=orthogonalEdgeStyle;rounded=0;orthogonalLoop=1;jettySize=auto;html=1;fillColor=#cce5ff;strokeColor=#36393d;" edge="1" parent="1" source="yqwSmFySM0pPCRr0p7oi-163" target="yqwSmFySM0pPCRr0p7oi-123">
          <mxGeometry relative="1" as="geometry" />
        </mxCell>
        <mxCell id="yqwSmFySM0pPCRr0p7oi-119" style="edgeStyle=orthogonalEdgeStyle;rounded=0;orthogonalLoop=1;jettySize=auto;html=1;entryX=0;entryY=0.5;entryDx=0;entryDy=0;fillColor=#cce5ff;strokeColor=#36393d;" edge="1" parent="1" source="yqwSmFySM0pPCRr0p7oi-120" target="yqwSmFySM0pPCRr0p7oi-115">
          <mxGeometry relative="1" as="geometry">
            <Array as="points">
              <mxPoint x="1280" y="670" />
            </Array>
          </mxGeometry>
        </mxCell>
        <mxCell id="yqwSmFySM0pPCRr0p7oi-120" value="Back Tuck With 1/&amp;nbsp;2 Twist" style="whiteSpace=wrap;html=1;fillColor=#cce5ff;strokeColor=#36393d;" vertex="1" parent="1">
          <mxGeometry x="1330" y="900" width="120" height="60" as="geometry" />
        </mxCell>
        <mxCell id="yqwSmFySM0pPCRr0p7oi-121" value="" style="edgeStyle=orthogonalEdgeStyle;rounded=0;orthogonalLoop=1;jettySize=auto;html=1;fillColor=#cce5ff;strokeColor=#36393d;" edge="1" parent="1" source="yqwSmFySM0pPCRr0p7oi-123" target="yqwSmFySM0pPCRr0p7oi-126">
          <mxGeometry relative="1" as="geometry" />
        </mxCell>
        <mxCell id="yqwSmFySM0pPCRr0p7oi-122" style="edgeStyle=orthogonalEdgeStyle;rounded=0;orthogonalLoop=1;jettySize=auto;html=1;fillColor=#cce5ff;strokeColor=#36393d;" edge="1" parent="1" source="yqwSmFySM0pPCRr0p7oi-123">
          <mxGeometry relative="1" as="geometry">
            <mxPoint x="1816" y="1180" as="targetPoint" />
            <Array as="points">
              <mxPoint x="1556" y="1180" />
            </Array>
          </mxGeometry>
        </mxCell>
        <mxCell id="yqwSmFySM0pPCRr0p7oi-123" value="Back Layout With 1/2 Twist" style="whiteSpace=wrap;html=1;fillColor=#cce5ff;strokeColor=#36393d;" vertex="1" parent="1">
          <mxGeometry x="1496" y="1000" width="120" height="60" as="geometry" />
        </mxCell>
        <mxCell id="yqwSmFySM0pPCRr0p7oi-124" value="" style="edgeStyle=orthogonalEdgeStyle;rounded=0;orthogonalLoop=1;jettySize=auto;html=1;fillColor=#cce5ff;strokeColor=#36393d;" edge="1" parent="1" source="yqwSmFySM0pPCRr0p7oi-126" target="yqwSmFySM0pPCRr0p7oi-170">
          <mxGeometry relative="1" as="geometry" />
        </mxCell>
        <mxCell id="yqwSmFySM0pPCRr0p7oi-125" style="edgeStyle=orthogonalEdgeStyle;rounded=0;orthogonalLoop=1;jettySize=auto;html=1;fillColor=#cce5ff;strokeColor=#36393d;" edge="1" parent="1" source="yqwSmFySM0pPCRr0p7oi-126" target="yqwSmFySM0pPCRr0p7oi-151">
          <mxGeometry relative="1" as="geometry">
            <Array as="points">
              <mxPoint x="1866" y="930" />
            </Array>
          </mxGeometry>
        </mxCell>
        <mxCell id="yqwSmFySM0pPCRr0p7oi-126" value="Back Layout With 1/1 Twist" style="whiteSpace=wrap;html=1;fillColor=#cce5ff;strokeColor=#36393d;" vertex="1" parent="1">
          <mxGeometry x="1686" y="900" width="120" height="60" as="geometry" />
        </mxCell>
        <mxCell id="yqwSmFySM0pPCRr0p7oi-127" value="" style="edgeStyle=orthogonalEdgeStyle;rounded=0;orthogonalLoop=1;jettySize=auto;html=1;fillColor=#cce5ff;strokeColor=#36393d;" edge="1" parent="1" source="yqwSmFySM0pPCRr0p7oi-129" target="yqwSmFySM0pPCRr0p7oi-149">
          <mxGeometry relative="1" as="geometry" />
        </mxCell>
        <mxCell id="yqwSmFySM0pPCRr0p7oi-128" style="edgeStyle=orthogonalEdgeStyle;rounded=0;orthogonalLoop=1;jettySize=auto;html=1;entryX=0;entryY=0.5;entryDx=0;entryDy=0;fillColor=#cce5ff;strokeColor=#36393d;" edge="1" parent="1" source="yqwSmFySM0pPCRr0p7oi-129" target="yqwSmFySM0pPCRr0p7oi-153">
          <mxGeometry relative="1" as="geometry">
            <Array as="points">
              <mxPoint x="2092" y="190" />
            </Array>
          </mxGeometry>
        </mxCell>
        <mxCell id="yqwSmFySM0pPCRr0p7oi-129" value="Front Layout With 1/1 Twist" style="whiteSpace=wrap;html=1;fillColor=#cce5ff;strokeColor=#36393d;" vertex="1" parent="1">
          <mxGeometry x="2032" y="230" width="120" height="60" as="geometry" />
        </mxCell>
        <mxCell id="yqwSmFySM0pPCRr0p7oi-130" value="" style="edgeStyle=orthogonalEdgeStyle;rounded=0;orthogonalLoop=1;jettySize=auto;html=1;fillColor=#cce5ff;strokeColor=#36393d;" edge="1" parent="1" source="yqwSmFySM0pPCRr0p7oi-132" target="yqwSmFySM0pPCRr0p7oi-195">
          <mxGeometry relative="1" as="geometry" />
        </mxCell>
        <mxCell id="yqwSmFySM0pPCRr0p7oi-131" style="edgeStyle=orthogonalEdgeStyle;rounded=0;orthogonalLoop=1;jettySize=auto;html=1;entryX=0;entryY=0.5;entryDx=0;entryDy=0;fillColor=#cce5ff;strokeColor=#36393d;" edge="1" parent="1" source="yqwSmFySM0pPCRr0p7oi-132" target="yqwSmFySM0pPCRr0p7oi-237">
          <mxGeometry relative="1" as="geometry" />
        </mxCell>
        <mxCell id="yqwSmFySM0pPCRr0p7oi-132" value="Ballout With 1/2 Twist" style="whiteSpace=wrap;html=1;fillColor=#cce5ff;strokeColor=#36393d;" vertex="1" parent="1">
          <mxGeometry x="1660" y="11" width="120" height="60" as="geometry" />
        </mxCell>
        <mxCell id="yqwSmFySM0pPCRr0p7oi-133" style="edgeStyle=orthogonalEdgeStyle;rounded=0;orthogonalLoop=1;jettySize=auto;html=1;entryX=0;entryY=0.5;entryDx=0;entryDy=0;fillColor=#cce5ff;strokeColor=#36393d;" edge="1" parent="1" source="yqwSmFySM0pPCRr0p7oi-134" target="yqwSmFySM0pPCRr0p7oi-145">
          <mxGeometry relative="1" as="geometry" />
        </mxCell>
        <mxCell id="yqwSmFySM0pPCRr0p7oi-134" value="3/4 Back, to Back Drop (Cody Timer)" style="whiteSpace=wrap;html=1;fillColor=#cce5ff;strokeColor=#36393d;" vertex="1" parent="1">
          <mxGeometry x="1150" y="-150" width="120" height="60" as="geometry" />
        </mxCell>
        <mxCell id="yqwSmFySM0pPCRr0p7oi-135" value="" style="edgeStyle=orthogonalEdgeStyle;rounded=0;orthogonalLoop=1;jettySize=auto;html=1;fillColor=#cce5ff;strokeColor=#36393d;" edge="1" parent="1" source="yqwSmFySM0pPCRr0p7oi-136" target="yqwSmFySM0pPCRr0p7oi-132">
          <mxGeometry relative="1" as="geometry" />
        </mxCell>
        <mxCell id="yqwSmFySM0pPCRr0p7oi-136" value="Ballout Piked" style="whiteSpace=wrap;html=1;fillColor=#cce5ff;strokeColor=#36393d;" vertex="1" parent="1">
          <mxGeometry x="1496" y="11" width="120" height="60" as="geometry" />
        </mxCell>
        <mxCell id="yqwSmFySM0pPCRr0p7oi-137" style="edgeStyle=orthogonalEdgeStyle;rounded=0;orthogonalLoop=1;jettySize=auto;html=1;entryX=0;entryY=0.5;entryDx=0;entryDy=0;fillColor=#cce5ff;strokeColor=#36393d;" edge="1" parent="1" source="yqwSmFySM0pPCRr0p7oi-138" target="yqwSmFySM0pPCRr0p7oi-147">
          <mxGeometry relative="1" as="geometry" />
        </mxCell>
        <mxCell id="yqwSmFySM0pPCRr0p7oi-138" value="1 &amp;amp; 1/4 Front Tuck" style="whiteSpace=wrap;html=1;fillColor=#cce5ff;strokeColor=#36393d;" vertex="1" parent="1">
          <mxGeometry x="1872" y="430" width="120" height="60" as="geometry" />
        </mxCell>
        <mxCell id="yqwSmFySM0pPCRr0p7oi-139" style="edgeStyle=orthogonalEdgeStyle;rounded=0;orthogonalLoop=1;jettySize=auto;html=1;entryX=0.5;entryY=0;entryDx=0;entryDy=0;fillColor=#cce5ff;strokeColor=#36393d;" edge="1" parent="1" source="yqwSmFySM0pPCRr0p7oi-141" target="yqwSmFySM0pPCRr0p7oi-159">
          <mxGeometry relative="1" as="geometry" />
        </mxCell>
        <mxCell id="yqwSmFySM0pPCRr0p7oi-140" style="edgeStyle=orthogonalEdgeStyle;rounded=0;orthogonalLoop=1;jettySize=auto;html=1;fillColor=#cce5ff;strokeColor=#36393d;" edge="1" parent="1" source="yqwSmFySM0pPCRr0p7oi-141">
          <mxGeometry relative="1" as="geometry">
            <mxPoint x="890" y="530" as="targetPoint" />
          </mxGeometry>
        </mxCell>
        <mxCell id="yqwSmFySM0pPCRr0p7oi-141" value="3/2 Twist to Back Drop" style="whiteSpace=wrap;html=1;fillColor=#cce5ff;strokeColor=#36393d;" vertex="1" parent="1">
          <mxGeometry x="830" y="580" width="120" height="60" as="geometry" />
        </mxCell>
        <mxCell id="yqwSmFySM0pPCRr0p7oi-142" style="edgeStyle=orthogonalEdgeStyle;rounded=0;orthogonalLoop=1;jettySize=auto;html=1;entryX=0;entryY=0.5;entryDx=0;entryDy=0;fillColor=#cce5ff;strokeColor=#36393d;" edge="1" parent="1" source="yqwSmFySM0pPCRr0p7oi-145" target="yqwSmFySM0pPCRr0p7oi-176">
          <mxGeometry relative="1" as="geometry" />
        </mxCell>
        <mxCell id="yqwSmFySM0pPCRr0p7oi-143" style="edgeStyle=orthogonalEdgeStyle;rounded=0;orthogonalLoop=1;jettySize=auto;html=1;entryX=0;entryY=0.5;entryDx=0;entryDy=0;fillColor=#cce5ff;strokeColor=#36393d;" edge="1" parent="1" source="yqwSmFySM0pPCRr0p7oi-145" target="yqwSmFySM0pPCRr0p7oi-179">
          <mxGeometry relative="1" as="geometry" />
        </mxCell>
        <mxCell id="yqwSmFySM0pPCRr0p7oi-144" value="" style="edgeStyle=orthogonalEdgeStyle;rounded=0;orthogonalLoop=1;jettySize=auto;html=1;fillColor=#cce5ff;strokeColor=#36393d;" edge="1" parent="1" source="yqwSmFySM0pPCRr0p7oi-145" target="yqwSmFySM0pPCRr0p7oi-335">
          <mxGeometry relative="1" as="geometry" />
        </mxCell>
        <mxCell id="yqwSmFySM0pPCRr0p7oi-145" value="Front Drop Back 1&amp;amp;1/4 Somersault to Feet (Cody)" style="whiteSpace=wrap;html=1;fillColor=#cce5ff;strokeColor=#36393d;" vertex="1" parent="1">
          <mxGeometry x="1540" y="-150" width="120" height="60" as="geometry" />
        </mxCell>
        <mxCell id="yqwSmFySM0pPCRr0p7oi-146" value="" style="edgeStyle=orthogonalEdgeStyle;rounded=0;orthogonalLoop=1;jettySize=auto;html=1;fillColor=#cce5ff;strokeColor=#36393d;" edge="1" parent="1" source="yqwSmFySM0pPCRr0p7oi-147" target="yqwSmFySM0pPCRr0p7oi-156">
          <mxGeometry relative="1" as="geometry" />
        </mxCell>
        <mxCell id="yqwSmFySM0pPCRr0p7oi-147" value="1 &amp;amp; 3/4 Front Tuck" style="whiteSpace=wrap;html=1;fillColor=#cce5ff;strokeColor=#36393d;" vertex="1" parent="1">
          <mxGeometry x="2185" y="430" width="120" height="60" as="geometry" />
        </mxCell>
        <mxCell id="yqwSmFySM0pPCRr0p7oi-148" value="" style="edgeStyle=orthogonalEdgeStyle;rounded=0;orthogonalLoop=1;jettySize=auto;html=1;fillColor=#cce5ff;strokeColor=#36393d;" edge="1" parent="1" source="yqwSmFySM0pPCRr0p7oi-149" target="yqwSmFySM0pPCRr0p7oi-198">
          <mxGeometry relative="1" as="geometry" />
        </mxCell>
        <mxCell id="yqwSmFySM0pPCRr0p7oi-149" value="Front Layout With 3/2 Twist (Rudi)" style="whiteSpace=wrap;html=1;fillColor=#cce5ff;strokeColor=#36393d;" vertex="1" parent="1">
          <mxGeometry x="2208" y="230" width="120" height="60" as="geometry" />
        </mxCell>
        <mxCell id="yqwSmFySM0pPCRr0p7oi-150" value="" style="edgeStyle=orthogonalEdgeStyle;rounded=0;orthogonalLoop=1;jettySize=auto;html=1;fillColor=#cce5ff;strokeColor=#36393d;" edge="1" parent="1" source="yqwSmFySM0pPCRr0p7oi-151" target="yqwSmFySM0pPCRr0p7oi-226">
          <mxGeometry relative="1" as="geometry" />
        </mxCell>
        <mxCell id="yqwSmFySM0pPCRr0p7oi-151" value="1 &amp;amp; 1/4 Back Tuck With Late 1/2 to Front Drop" style="whiteSpace=wrap;html=1;fillColor=#cce5ff;strokeColor=#36393d;" vertex="1" parent="1">
          <mxGeometry x="1816" y="1040" width="120" height="60" as="geometry" />
        </mxCell>
        <mxCell id="yqwSmFySM0pPCRr0p7oi-152" value="" style="edgeStyle=orthogonalEdgeStyle;rounded=0;orthogonalLoop=1;jettySize=auto;html=1;fillColor=#cce5ff;strokeColor=#36393d;" edge="1" parent="1" source="yqwSmFySM0pPCRr0p7oi-153" target="yqwSmFySM0pPCRr0p7oi-182">
          <mxGeometry relative="1" as="geometry" />
        </mxCell>
        <mxCell id="yqwSmFySM0pPCRr0p7oi-153" value="1&amp;amp;1/4 Front Tuck With 1/2 Twist" style="whiteSpace=wrap;html=1;fillColor=#cce5ff;strokeColor=#36393d;" vertex="1" parent="1">
          <mxGeometry x="2712" y="160" width="120" height="60" as="geometry" />
        </mxCell>
        <mxCell id="yqwSmFySM0pPCRr0p7oi-154" value="" style="edgeStyle=orthogonalEdgeStyle;rounded=0;orthogonalLoop=1;jettySize=auto;html=1;fillColor=#cce5ff;strokeColor=#36393d;" edge="1" parent="1" source="yqwSmFySM0pPCRr0p7oi-156" target="yqwSmFySM0pPCRr0p7oi-168">
          <mxGeometry relative="1" as="geometry" />
        </mxCell>
        <mxCell id="yqwSmFySM0pPCRr0p7oi-155" style="edgeStyle=orthogonalEdgeStyle;rounded=0;orthogonalLoop=1;jettySize=auto;html=1;entryX=0;entryY=0.5;entryDx=0;entryDy=0;fillColor=#cce5ff;strokeColor=#36393d;" edge="1" parent="1" source="yqwSmFySM0pPCRr0p7oi-156" target="yqwSmFySM0pPCRr0p7oi-204">
          <mxGeometry relative="1" as="geometry">
            <Array as="points">
              <mxPoint x="2442" y="560" />
            </Array>
          </mxGeometry>
        </mxCell>
        <mxCell id="yqwSmFySM0pPCRr0p7oi-156" value="1 &amp;amp; 3/4 Front Pike" style="whiteSpace=wrap;html=1;fillColor=#cce5ff;strokeColor=#36393d;" vertex="1" parent="1">
          <mxGeometry x="2376" y="430" width="120" height="60" as="geometry" />
        </mxCell>
        <mxCell id="yqwSmFySM0pPCRr0p7oi-157" value="" style="edgeStyle=orthogonalEdgeStyle;rounded=0;orthogonalLoop=1;jettySize=auto;html=1;fillColor=#cce5ff;strokeColor=#36393d;" edge="1" parent="1" source="yqwSmFySM0pPCRr0p7oi-158" target="yqwSmFySM0pPCRr0p7oi-72">
          <mxGeometry relative="1" as="geometry" />
        </mxCell>
        <mxCell id="yqwSmFySM0pPCRr0p7oi-158" value="Back Drop to Front Drop" style="whiteSpace=wrap;html=1;fillColor=#cce5ff;strokeColor=#36393d;" vertex="1" parent="1">
          <mxGeometry x="670" y="820" width="120" height="60" as="geometry" />
        </mxCell>
        <mxCell id="yqwSmFySM0pPCRr0p7oi-159" value="Back Drop 3/2 twist to Back Drop (Corkscrew)" style="whiteSpace=wrap;html=1;fillColor=#cce5ff;strokeColor=#36393d;" vertex="1" parent="1">
          <mxGeometry x="830" y="680" width="120" height="60" as="geometry" />
        </mxCell>
        <mxCell id="yqwSmFySM0pPCRr0p7oi-160" value="Back Drop 1/1 Turn to Back Drop &lt;br&gt;(Cat Twist)" style="whiteSpace=wrap;html=1;fillColor=#cce5ff;strokeColor=#36393d;" vertex="1" parent="1">
          <mxGeometry x="420" y="670" width="120" height="60" as="geometry" />
        </mxCell>
        <mxCell id="yqwSmFySM0pPCRr0p7oi-161" value="Seat Drop 1/2 Twist to Back Drop" style="whiteSpace=wrap;html=1;fillColor=#cce5ff;strokeColor=#36393d;" vertex="1" parent="1">
          <mxGeometry x="350" y="820" width="120" height="60" as="geometry" />
        </mxCell>
        <mxCell id="yqwSmFySM0pPCRr0p7oi-162" value="" style="edgeStyle=orthogonalEdgeStyle;rounded=0;orthogonalLoop=1;jettySize=auto;html=1;fillColor=#cce5ff;strokeColor=#36393d;" edge="1" parent="1" source="yqwSmFySM0pPCRr0p7oi-163" target="yqwSmFySM0pPCRr0p7oi-126">
          <mxGeometry relative="1" as="geometry" />
        </mxCell>
        <mxCell id="yqwSmFySM0pPCRr0p7oi-163" value="Back Tuck With 1/1 Twist" style="whiteSpace=wrap;html=1;fillColor=#cce5ff;strokeColor=#36393d;" vertex="1" parent="1">
          <mxGeometry x="1496" y="900" width="120" height="60" as="geometry" />
        </mxCell>
        <mxCell id="yqwSmFySM0pPCRr0p7oi-164" value="" style="edgeStyle=orthogonalEdgeStyle;rounded=0;orthogonalLoop=1;jettySize=auto;html=1;fillColor=#cce5ff;strokeColor=#36393d;" edge="1" parent="1" source="yqwSmFySM0pPCRr0p7oi-120" target="yqwSmFySM0pPCRr0p7oi-163">
          <mxGeometry relative="1" as="geometry">
            <mxPoint x="1335" y="900" as="sourcePoint" />
            <mxPoint x="1470" y="1050" as="targetPoint" />
          </mxGeometry>
        </mxCell>
        <mxCell id="yqwSmFySM0pPCRr0p7oi-165" value="" style="edgeStyle=orthogonalEdgeStyle;rounded=0;orthogonalLoop=1;jettySize=auto;html=1;fillColor=#cce5ff;strokeColor=#36393d;" edge="1" parent="1" source="yqwSmFySM0pPCRr0p7oi-168" target="yqwSmFySM0pPCRr0p7oi-185">
          <mxGeometry relative="1" as="geometry" />
        </mxCell>
        <mxCell id="yqwSmFySM0pPCRr0p7oi-166" style="edgeStyle=orthogonalEdgeStyle;rounded=0;orthogonalLoop=1;jettySize=auto;html=1;entryX=0.5;entryY=1;entryDx=0;entryDy=0;fillColor=#cce5ff;strokeColor=#36393d;" edge="1" parent="1" source="yqwSmFySM0pPCRr0p7oi-168" target="yqwSmFySM0pPCRr0p7oi-182">
          <mxGeometry relative="1" as="geometry">
            <Array as="points">
              <mxPoint x="2800" y="390" />
              <mxPoint x="3130" y="390" />
            </Array>
          </mxGeometry>
        </mxCell>
        <mxCell id="yqwSmFySM0pPCRr0p7oi-167" value="" style="edgeStyle=orthogonalEdgeStyle;rounded=0;orthogonalLoop=1;jettySize=auto;html=1;fillColor=#cce5ff;strokeColor=#36393d;" edge="1" parent="1" source="yqwSmFySM0pPCRr0p7oi-168" target="yqwSmFySM0pPCRr0p7oi-204">
          <mxGeometry relative="1" as="geometry" />
        </mxCell>
        <mxCell id="yqwSmFySM0pPCRr0p7oi-168" value="Double Front Tucked" style="whiteSpace=wrap;html=1;fillColor=#cce5ff;strokeColor=#36393d;" vertex="1" parent="1">
          <mxGeometry x="2562" y="430" width="120" height="60" as="geometry" />
        </mxCell>
        <mxCell id="yqwSmFySM0pPCRr0p7oi-169" style="edgeStyle=orthogonalEdgeStyle;rounded=0;orthogonalLoop=1;jettySize=auto;html=1;entryX=0;entryY=0.5;entryDx=0;entryDy=0;fillColor=#cce5ff;strokeColor=#36393d;" edge="1" parent="1" source="yqwSmFySM0pPCRr0p7oi-170" target="yqwSmFySM0pPCRr0p7oi-172">
          <mxGeometry relative="1" as="geometry" />
        </mxCell>
        <mxCell id="yqwSmFySM0pPCRr0p7oi-170" value="Back Layout With 3/2 Twist" style="whiteSpace=wrap;html=1;fillColor=#cce5ff;strokeColor=#36393d;" vertex="1" parent="1">
          <mxGeometry x="1896" y="900" width="120" height="60" as="geometry" />
        </mxCell>
        <mxCell id="yqwSmFySM0pPCRr0p7oi-171" value="" style="edgeStyle=orthogonalEdgeStyle;rounded=0;orthogonalLoop=1;jettySize=auto;html=1;fillColor=#cce5ff;strokeColor=#36393d;" edge="1" parent="1" source="yqwSmFySM0pPCRr0p7oi-172" target="yqwSmFySM0pPCRr0p7oi-230">
          <mxGeometry relative="1" as="geometry" />
        </mxCell>
        <mxCell id="yqwSmFySM0pPCRr0p7oi-172" value="Back Layout With 2/1 Twist" style="whiteSpace=wrap;html=1;fillColor=#cce5ff;strokeColor=#36393d;" vertex="1" parent="1">
          <mxGeometry x="2100" y="900" width="120" height="60" as="geometry" />
        </mxCell>
        <mxCell id="yqwSmFySM0pPCRr0p7oi-173" value="" style="edgeStyle=orthogonalEdgeStyle;rounded=0;orthogonalLoop=1;jettySize=auto;html=1;fillColor=#cce5ff;strokeColor=#36393d;" edge="1" parent="1" source="yqwSmFySM0pPCRr0p7oi-174" target="yqwSmFySM0pPCRr0p7oi-98">
          <mxGeometry relative="1" as="geometry" />
        </mxCell>
        <mxCell id="yqwSmFySM0pPCRr0p7oi-174" value="Back Layout" style="ellipse;whiteSpace=wrap;html=1;fillColor=#cce5ff;strokeColor=#36393d;" vertex="1" parent="1">
          <mxGeometry x="730" y="340" width="120" height="80" as="geometry" />
        </mxCell>
        <mxCell id="yqwSmFySM0pPCRr0p7oi-175" style="edgeStyle=orthogonalEdgeStyle;rounded=0;orthogonalLoop=1;jettySize=auto;html=1;fillColor=#cce5ff;strokeColor=#36393d;" edge="1" parent="1" source="yqwSmFySM0pPCRr0p7oi-176" target="yqwSmFySM0pPCRr0p7oi-178">
          <mxGeometry relative="1" as="geometry" />
        </mxCell>
        <mxCell id="yqwSmFySM0pPCRr0p7oi-176" value="Coldy With 1/2 Twist" style="whiteSpace=wrap;html=1;fillColor=#cce5ff;strokeColor=#36393d;" vertex="1" parent="1">
          <mxGeometry x="1806" y="-150" width="120" height="60" as="geometry" />
        </mxCell>
        <mxCell id="yqwSmFySM0pPCRr0p7oi-177" value="" style="edgeStyle=orthogonalEdgeStyle;rounded=0;orthogonalLoop=1;jettySize=auto;html=1;fillColor=#cce5ff;strokeColor=#36393d;" edge="1" parent="1" source="yqwSmFySM0pPCRr0p7oi-178" target="yqwSmFySM0pPCRr0p7oi-330">
          <mxGeometry relative="1" as="geometry" />
        </mxCell>
        <mxCell id="yqwSmFySM0pPCRr0p7oi-178" value="Cody With 1/1 Twist" style="whiteSpace=wrap;html=1;fillColor=#cce5ff;strokeColor=#36393d;" vertex="1" parent="1">
          <mxGeometry x="2072" y="-150" width="120" height="60" as="geometry" />
        </mxCell>
        <mxCell id="yqwSmFySM0pPCRr0p7oi-179" value="Cody Piked" style="whiteSpace=wrap;html=1;fillColor=#cce5ff;strokeColor=#36393d;" vertex="1" parent="1">
          <mxGeometry x="1660" y="-240" width="120" height="60" as="geometry" />
        </mxCell>
        <mxCell id="yqwSmFySM0pPCRr0p7oi-180" value="" style="edgeStyle=orthogonalEdgeStyle;rounded=0;orthogonalLoop=1;jettySize=auto;html=1;fillColor=#cce5ff;strokeColor=#36393d;" edge="1" parent="1" source="yqwSmFySM0pPCRr0p7oi-182" target="yqwSmFySM0pPCRr0p7oi-206">
          <mxGeometry relative="1" as="geometry" />
        </mxCell>
        <mxCell id="yqwSmFySM0pPCRr0p7oi-181" style="edgeStyle=orthogonalEdgeStyle;rounded=0;orthogonalLoop=1;jettySize=auto;html=1;entryX=0;entryY=0.5;entryDx=0;entryDy=0;fillColor=#cce5ff;strokeColor=#36393d;" edge="1" parent="1" source="yqwSmFySM0pPCRr0p7oi-182" target="yqwSmFySM0pPCRr0p7oi-220">
          <mxGeometry relative="1" as="geometry" />
        </mxCell>
        <mxCell id="yqwSmFySM0pPCRr0p7oi-182" value="Double Front Tuck with 1/2 Twist In" style="whiteSpace=wrap;html=1;fillColor=#cce5ff;strokeColor=#36393d;" vertex="1" parent="1">
          <mxGeometry x="2858" y="231" width="120" height="60" as="geometry" />
        </mxCell>
        <mxCell id="yqwSmFySM0pPCRr0p7oi-183" value="" style="edgeStyle=orthogonalEdgeStyle;rounded=0;orthogonalLoop=1;jettySize=auto;html=1;fillColor=#cce5ff;strokeColor=#36393d;" edge="1" parent="1" source="yqwSmFySM0pPCRr0p7oi-185" target="yqwSmFySM0pPCRr0p7oi-210">
          <mxGeometry relative="1" as="geometry" />
        </mxCell>
        <mxCell id="yqwSmFySM0pPCRr0p7oi-184" style="edgeStyle=orthogonalEdgeStyle;rounded=0;orthogonalLoop=1;jettySize=auto;html=1;entryX=0.5;entryY=1;entryDx=0;entryDy=0;fillColor=#cce5ff;strokeColor=#36393d;" edge="1" parent="1" source="yqwSmFySM0pPCRr0p7oi-185" target="yqwSmFySM0pPCRr0p7oi-213">
          <mxGeometry relative="1" as="geometry">
            <Array as="points">
              <mxPoint x="2918" y="411" />
              <mxPoint x="3278" y="411" />
            </Array>
          </mxGeometry>
        </mxCell>
        <mxCell id="yqwSmFySM0pPCRr0p7oi-185" value="Double Front Tuck With 1/2 Twist Out" style="whiteSpace=wrap;html=1;fillColor=#cce5ff;strokeColor=#36393d;" vertex="1" parent="1">
          <mxGeometry x="2856" y="430" width="120" height="60" as="geometry" />
        </mxCell>
        <mxCell id="yqwSmFySM0pPCRr0p7oi-186" style="edgeStyle=orthogonalEdgeStyle;rounded=0;orthogonalLoop=1;jettySize=auto;html=1;entryX=0;entryY=0.5;entryDx=0;entryDy=0;fillColor=#cce5ff;strokeColor=#36393d;" edge="1" parent="1" source="yqwSmFySM0pPCRr0p7oi-189" target="yqwSmFySM0pPCRr0p7oi-262">
          <mxGeometry relative="1" as="geometry" />
        </mxCell>
        <mxCell id="yqwSmFySM0pPCRr0p7oi-187" style="edgeStyle=orthogonalEdgeStyle;rounded=0;orthogonalLoop=1;jettySize=auto;html=1;entryX=0;entryY=0.5;entryDx=0;entryDy=0;fillColor=#cce5ff;strokeColor=#36393d;" edge="1" parent="1" source="yqwSmFySM0pPCRr0p7oi-189" target="yqwSmFySM0pPCRr0p7oi-274">
          <mxGeometry relative="1" as="geometry" />
        </mxCell>
        <mxCell id="yqwSmFySM0pPCRr0p7oi-188" style="edgeStyle=orthogonalEdgeStyle;rounded=0;orthogonalLoop=1;jettySize=auto;html=1;entryX=0;entryY=0.5;entryDx=0;entryDy=0;fillColor=#cce5ff;strokeColor=#36393d;" edge="1" parent="1" source="yqwSmFySM0pPCRr0p7oi-189" target="yqwSmFySM0pPCRr0p7oi-325">
          <mxGeometry relative="1" as="geometry">
            <Array as="points">
              <mxPoint x="2316" y="1520" />
            </Array>
          </mxGeometry>
        </mxCell>
        <mxCell id="yqwSmFySM0pPCRr0p7oi-189" value="Double Back Layout" style="whiteSpace=wrap;html=1;fillColor=#cce5ff;strokeColor=#36393d;" vertex="1" parent="1">
          <mxGeometry x="2256" y="1330" width="120" height="60" as="geometry" />
        </mxCell>
        <mxCell id="yqwSmFySM0pPCRr0p7oi-190" style="edgeStyle=orthogonalEdgeStyle;rounded=0;orthogonalLoop=1;jettySize=auto;html=1;entryX=0;entryY=0.5;entryDx=0;entryDy=0;fillColor=#cce5ff;strokeColor=#36393d;" edge="1" parent="1" source="yqwSmFySM0pPCRr0p7oi-191" target="yqwSmFySM0pPCRr0p7oi-193">
          <mxGeometry relative="1" as="geometry" />
        </mxCell>
        <mxCell id="yqwSmFySM0pPCRr0p7oi-191" value="Cody 1/2 to Flat Back" style="whiteSpace=wrap;html=1;fillColor=#cce5ff;strokeColor=#36393d;" vertex="1" parent="1">
          <mxGeometry x="1806" y="-320" width="120" height="60" as="geometry" />
        </mxCell>
        <mxCell id="yqwSmFySM0pPCRr0p7oi-192" value="" style="edgeStyle=orthogonalEdgeStyle;rounded=0;orthogonalLoop=1;jettySize=auto;html=1;fillColor=#cce5ff;strokeColor=#36393d;" edge="1" parent="1" source="yqwSmFySM0pPCRr0p7oi-193" target="yqwSmFySM0pPCRr0p7oi-327">
          <mxGeometry relative="1" as="geometry" />
        </mxCell>
        <mxCell id="yqwSmFySM0pPCRr0p7oi-193" value="Cody With Twist 1/1 to Stomach" style="whiteSpace=wrap;html=1;fillColor=#cce5ff;strokeColor=#36393d;" vertex="1" parent="1">
          <mxGeometry x="2065" y="-320" width="120" height="60" as="geometry" />
        </mxCell>
        <mxCell id="yqwSmFySM0pPCRr0p7oi-194" value="" style="edgeStyle=orthogonalEdgeStyle;rounded=0;orthogonalLoop=1;jettySize=auto;html=1;fillColor=#cce5ff;strokeColor=#36393d;" edge="1" parent="1" source="yqwSmFySM0pPCRr0p7oi-195" target="yqwSmFySM0pPCRr0p7oi-196">
          <mxGeometry relative="1" as="geometry" />
        </mxCell>
        <mxCell id="yqwSmFySM0pPCRr0p7oi-195" value="Ballout With 1/1 Twist" style="whiteSpace=wrap;html=1;fillColor=#cce5ff;strokeColor=#36393d;" vertex="1" parent="1">
          <mxGeometry x="1877" y="11" width="120" height="60" as="geometry" />
        </mxCell>
        <mxCell id="yqwSmFySM0pPCRr0p7oi-196" value="Ballout With 3/2 Twist" style="whiteSpace=wrap;html=1;fillColor=#cce5ff;strokeColor=#36393d;" vertex="1" parent="1">
          <mxGeometry x="2072" y="11" width="120" height="60" as="geometry" />
        </mxCell>
        <mxCell id="yqwSmFySM0pPCRr0p7oi-197" value="" style="edgeStyle=orthogonalEdgeStyle;rounded=0;orthogonalLoop=1;jettySize=auto;html=1;fillColor=#cce5ff;strokeColor=#36393d;" edge="1" parent="1" source="yqwSmFySM0pPCRr0p7oi-198" target="yqwSmFySM0pPCRr0p7oi-200">
          <mxGeometry relative="1" as="geometry" />
        </mxCell>
        <mxCell id="yqwSmFySM0pPCRr0p7oi-198" value="Front Layout With&amp;nbsp; 2/1 Twist" style="whiteSpace=wrap;html=1;fillColor=#cce5ff;strokeColor=#36393d;" vertex="1" parent="1">
          <mxGeometry x="2378" y="230" width="120" height="60" as="geometry" />
        </mxCell>
        <mxCell id="yqwSmFySM0pPCRr0p7oi-199" value="" style="edgeStyle=orthogonalEdgeStyle;rounded=0;orthogonalLoop=1;jettySize=auto;html=1;fillColor=#cce5ff;strokeColor=#36393d;" edge="1" parent="1" source="yqwSmFySM0pPCRr0p7oi-200" target="yqwSmFySM0pPCRr0p7oi-201">
          <mxGeometry relative="1" as="geometry" />
        </mxCell>
        <mxCell id="yqwSmFySM0pPCRr0p7oi-200" value="Front Layout With 5/2 Twist (Randi)" style="whiteSpace=wrap;html=1;fillColor=#cce5ff;strokeColor=#36393d;" vertex="1" parent="1">
          <mxGeometry x="2548" y="230" width="120" height="60" as="geometry" />
        </mxCell>
        <mxCell id="yqwSmFySM0pPCRr0p7oi-201" value="Front Layout With 3/1 Twist" style="whiteSpace=wrap;html=1;fillColor=#cce5ff;strokeColor=#36393d;" vertex="1" parent="1">
          <mxGeometry x="2712" y="230" width="120" height="60" as="geometry" />
        </mxCell>
        <mxCell id="yqwSmFySM0pPCRr0p7oi-202" style="edgeStyle=orthogonalEdgeStyle;rounded=0;orthogonalLoop=1;jettySize=auto;html=1;entryX=0;entryY=0.5;entryDx=0;entryDy=0;fillColor=#cce5ff;strokeColor=#36393d;" edge="1" parent="1" source="yqwSmFySM0pPCRr0p7oi-204" target="yqwSmFySM0pPCRr0p7oi-208">
          <mxGeometry relative="1" as="geometry" />
        </mxCell>
        <mxCell id="yqwSmFySM0pPCRr0p7oi-203" style="edgeStyle=orthogonalEdgeStyle;rounded=0;orthogonalLoop=1;jettySize=auto;html=1;fillColor=#cce5ff;strokeColor=#36393d;" edge="1" parent="1" source="yqwSmFySM0pPCRr0p7oi-204" target="yqwSmFySM0pPCRr0p7oi-293">
          <mxGeometry relative="1" as="geometry" />
        </mxCell>
        <mxCell id="yqwSmFySM0pPCRr0p7oi-204" value="Double Front Piked" style="whiteSpace=wrap;html=1;fillColor=#cce5ff;strokeColor=#36393d;" vertex="1" parent="1">
          <mxGeometry x="2562" y="530" width="120" height="60" as="geometry" />
        </mxCell>
        <mxCell id="yqwSmFySM0pPCRr0p7oi-205" value="" style="edgeStyle=orthogonalEdgeStyle;rounded=0;orthogonalLoop=1;jettySize=auto;html=1;fillColor=#cce5ff;strokeColor=#36393d;" edge="1" parent="1" source="yqwSmFySM0pPCRr0p7oi-206" target="yqwSmFySM0pPCRr0p7oi-213">
          <mxGeometry relative="1" as="geometry" />
        </mxCell>
        <mxCell id="yqwSmFySM0pPCRr0p7oi-206" value="Double Front Tuck With 1/1 Twist In" style="whiteSpace=wrap;html=1;fillColor=#cce5ff;strokeColor=#36393d;" vertex="1" parent="1">
          <mxGeometry x="3048" y="231" width="120" height="60" as="geometry" />
        </mxCell>
        <mxCell id="yqwSmFySM0pPCRr0p7oi-207" value="" style="edgeStyle=orthogonalEdgeStyle;rounded=0;orthogonalLoop=1;jettySize=auto;html=1;fillColor=#cce5ff;strokeColor=#36393d;" edge="1" parent="1" source="yqwSmFySM0pPCRr0p7oi-208" target="yqwSmFySM0pPCRr0p7oi-215">
          <mxGeometry relative="1" as="geometry" />
        </mxCell>
        <mxCell id="yqwSmFySM0pPCRr0p7oi-208" value="Double Front Pike With 1/2 Twist Out" style="whiteSpace=wrap;html=1;fillColor=#cce5ff;strokeColor=#36393d;" vertex="1" parent="1">
          <mxGeometry x="3048" y="530" width="120" height="60" as="geometry" />
        </mxCell>
        <mxCell id="yqwSmFySM0pPCRr0p7oi-209" value="" style="edgeStyle=orthogonalEdgeStyle;rounded=0;orthogonalLoop=1;jettySize=auto;html=1;fillColor=#cce5ff;strokeColor=#36393d;" edge="1" parent="1" source="yqwSmFySM0pPCRr0p7oi-210" target="yqwSmFySM0pPCRr0p7oi-211">
          <mxGeometry relative="1" as="geometry" />
        </mxCell>
        <mxCell id="yqwSmFySM0pPCRr0p7oi-210" value="Double Front Tuck With 1/1 Twist Out" style="whiteSpace=wrap;html=1;fillColor=#cce5ff;strokeColor=#36393d;" vertex="1" parent="1">
          <mxGeometry x="3048" y="430" width="120" height="60" as="geometry" />
        </mxCell>
        <mxCell id="yqwSmFySM0pPCRr0p7oi-211" value="Double Front Tuck With 3/2 Twist Out" style="whiteSpace=wrap;html=1;fillColor=#cce5ff;strokeColor=#36393d;" vertex="1" parent="1">
          <mxGeometry x="3228" y="430" width="120" height="60" as="geometry" />
        </mxCell>
        <mxCell id="yqwSmFySM0pPCRr0p7oi-212" value="" style="edgeStyle=orthogonalEdgeStyle;rounded=0;orthogonalLoop=1;jettySize=auto;html=1;fillColor=#cce5ff;strokeColor=#36393d;" edge="1" parent="1" source="yqwSmFySM0pPCRr0p7oi-213" target="yqwSmFySM0pPCRr0p7oi-216">
          <mxGeometry relative="1" as="geometry" />
        </mxCell>
        <mxCell id="yqwSmFySM0pPCRr0p7oi-213" value="Double Front Tuck With 1/1 Twist In, 1/2 Twist Out" style="whiteSpace=wrap;html=1;fillColor=#cce5ff;strokeColor=#36393d;" vertex="1" parent="1">
          <mxGeometry x="3218" y="231" width="120" height="60" as="geometry" />
        </mxCell>
        <mxCell id="yqwSmFySM0pPCRr0p7oi-214" value="" style="edgeStyle=orthogonalEdgeStyle;rounded=0;orthogonalLoop=1;jettySize=auto;html=1;fillColor=#cce5ff;strokeColor=#36393d;" edge="1" parent="1" source="yqwSmFySM0pPCRr0p7oi-215" target="yqwSmFySM0pPCRr0p7oi-289">
          <mxGeometry relative="1" as="geometry" />
        </mxCell>
        <mxCell id="yqwSmFySM0pPCRr0p7oi-215" value="Double Front Pike With 1/1 Twist Out" style="whiteSpace=wrap;html=1;fillColor=#cce5ff;strokeColor=#36393d;" vertex="1" parent="1">
          <mxGeometry x="3228" y="530" width="120" height="60" as="geometry" />
        </mxCell>
        <mxCell id="yqwSmFySM0pPCRr0p7oi-216" value="Double Front Tuck With 1/1 Twist In, !/1/ Twist Out" style="whiteSpace=wrap;html=1;fillColor=#cce5ff;strokeColor=#36393d;" vertex="1" parent="1">
          <mxGeometry x="3378" y="231" width="120" height="60" as="geometry" />
        </mxCell>
        <mxCell id="yqwSmFySM0pPCRr0p7oi-217" value="" style="edgeStyle=orthogonalEdgeStyle;rounded=0;orthogonalLoop=1;jettySize=auto;html=1;fillColor=#cce5ff;strokeColor=#36393d;" edge="1" parent="1" source="yqwSmFySM0pPCRr0p7oi-218" target="yqwSmFySM0pPCRr0p7oi-182">
          <mxGeometry relative="1" as="geometry" />
        </mxCell>
        <mxCell id="yqwSmFySM0pPCRr0p7oi-218" value="Double Back Tucked" style="ellipse;whiteSpace=wrap;html=1;fillColor=#cce5ff;strokeColor=#36393d;" vertex="1" parent="1">
          <mxGeometry x="2858" y="41" width="120" height="80" as="geometry" />
        </mxCell>
        <mxCell id="yqwSmFySM0pPCRr0p7oi-219" value="" style="edgeStyle=orthogonalEdgeStyle;rounded=0;orthogonalLoop=1;jettySize=auto;html=1;fillColor=#cce5ff;strokeColor=#36393d;" edge="1" parent="1" source="yqwSmFySM0pPCRr0p7oi-220" target="yqwSmFySM0pPCRr0p7oi-222">
          <mxGeometry relative="1" as="geometry" />
        </mxCell>
        <mxCell id="yqwSmFySM0pPCRr0p7oi-220" value="Double Front Tuck With 1/2 Twist In, 1/2 Twist Out" style="whiteSpace=wrap;html=1;fillColor=#cce5ff;strokeColor=#36393d;" vertex="1" parent="1">
          <mxGeometry x="3048" y="121" width="120" height="60" as="geometry" />
        </mxCell>
        <mxCell id="yqwSmFySM0pPCRr0p7oi-221" style="edgeStyle=orthogonalEdgeStyle;rounded=0;orthogonalLoop=1;jettySize=auto;html=1;entryX=0.5;entryY=0;entryDx=0;entryDy=0;fillColor=#cce5ff;strokeColor=#36393d;" edge="1" parent="1" source="yqwSmFySM0pPCRr0p7oi-222" target="yqwSmFySM0pPCRr0p7oi-216">
          <mxGeometry relative="1" as="geometry" />
        </mxCell>
        <mxCell id="yqwSmFySM0pPCRr0p7oi-222" value="Double Front Tuck With 1/2 Twist In, 1/1 Twist Out" style="whiteSpace=wrap;html=1;fillColor=#cce5ff;strokeColor=#36393d;" vertex="1" parent="1">
          <mxGeometry x="3218" y="121" width="120" height="60" as="geometry" />
        </mxCell>
        <mxCell id="yqwSmFySM0pPCRr0p7oi-223" value="" style="edgeStyle=orthogonalEdgeStyle;rounded=0;orthogonalLoop=1;jettySize=auto;html=1;fillColor=#cce5ff;strokeColor=#36393d;" edge="1" parent="1" source="yqwSmFySM0pPCRr0p7oi-224" target="yqwSmFySM0pPCRr0p7oi-222">
          <mxGeometry relative="1" as="geometry" />
        </mxCell>
        <mxCell id="yqwSmFySM0pPCRr0p7oi-224" value="Back Layout with 1/1 Twist" style="ellipse;whiteSpace=wrap;html=1;fillColor=#cce5ff;strokeColor=#36393d;" vertex="1" parent="1">
          <mxGeometry x="3219" y="-9" width="120" height="80" as="geometry" />
        </mxCell>
        <mxCell id="yqwSmFySM0pPCRr0p7oi-225" style="edgeStyle=orthogonalEdgeStyle;rounded=0;orthogonalLoop=1;jettySize=auto;html=1;entryX=0;entryY=0.5;entryDx=0;entryDy=0;fillColor=#cce5ff;strokeColor=#36393d;" edge="1" parent="1" source="yqwSmFySM0pPCRr0p7oi-226" target="yqwSmFySM0pPCRr0p7oi-228">
          <mxGeometry relative="1" as="geometry" />
        </mxCell>
        <mxCell id="yqwSmFySM0pPCRr0p7oi-226" value="Double Back Tuck With 1/2 Twist Out" style="whiteSpace=wrap;html=1;fillColor=#cce5ff;strokeColor=#36393d;" vertex="1" parent="1">
          <mxGeometry x="1816" y="1150" width="120" height="60" as="geometry" />
        </mxCell>
        <mxCell id="yqwSmFySM0pPCRr0p7oi-227" style="edgeStyle=orthogonalEdgeStyle;rounded=0;orthogonalLoop=1;jettySize=auto;html=1;entryX=0;entryY=0.5;entryDx=0;entryDy=0;fillColor=#cce5ff;strokeColor=#36393d;" edge="1" parent="1" source="yqwSmFySM0pPCRr0p7oi-228" target="yqwSmFySM0pPCRr0p7oi-242">
          <mxGeometry relative="1" as="geometry" />
        </mxCell>
        <mxCell id="yqwSmFySM0pPCRr0p7oi-228" value="Double Back Tuck With 1/1 Twist Out" style="whiteSpace=wrap;html=1;fillColor=#cce5ff;strokeColor=#36393d;" vertex="1" parent="1">
          <mxGeometry x="2256" y="1150" width="120" height="60" as="geometry" />
        </mxCell>
        <mxCell id="yqwSmFySM0pPCRr0p7oi-229" value="" style="edgeStyle=orthogonalEdgeStyle;rounded=0;orthogonalLoop=1;jettySize=auto;html=1;fillColor=#cce5ff;strokeColor=#36393d;" edge="1" parent="1" source="yqwSmFySM0pPCRr0p7oi-230" target="yqwSmFySM0pPCRr0p7oi-231">
          <mxGeometry relative="1" as="geometry" />
        </mxCell>
        <mxCell id="yqwSmFySM0pPCRr0p7oi-230" value="Back Layout With 5/2 Twist" style="whiteSpace=wrap;html=1;fillColor=#cce5ff;strokeColor=#36393d;" vertex="1" parent="1">
          <mxGeometry x="2256" y="900" width="120" height="60" as="geometry" />
        </mxCell>
        <mxCell id="yqwSmFySM0pPCRr0p7oi-231" value="Back Layout With 3/1 Twist" style="whiteSpace=wrap;html=1;fillColor=#cce5ff;strokeColor=#36393d;" vertex="1" parent="1">
          <mxGeometry x="2416" y="900" width="120" height="60" as="geometry" />
        </mxCell>
        <mxCell id="yqwSmFySM0pPCRr0p7oi-232" value="" style="edgeStyle=orthogonalEdgeStyle;rounded=0;orthogonalLoop=1;jettySize=auto;html=1;fillColor=#cce5ff;strokeColor=#36393d;" edge="1" parent="1" source="yqwSmFySM0pPCRr0p7oi-233" target="yqwSmFySM0pPCRr0p7oi-235">
          <mxGeometry relative="1" as="geometry" />
        </mxCell>
        <mxCell id="yqwSmFySM0pPCRr0p7oi-233" value="Double Back Tuck With 1/2 Twist In, Front Out (Arabian Double)" style="whiteSpace=wrap;html=1;fillColor=#cce5ff;strokeColor=#36393d;" vertex="1" parent="1">
          <mxGeometry x="2106" y="1040" width="120" height="60" as="geometry" />
        </mxCell>
        <mxCell id="yqwSmFySM0pPCRr0p7oi-234" style="edgeStyle=orthogonalEdgeStyle;rounded=0;orthogonalLoop=1;jettySize=auto;html=1;entryX=0.5;entryY=0;entryDx=0;entryDy=0;fillColor=#cce5ff;strokeColor=#36393d;" edge="1" parent="1" source="yqwSmFySM0pPCRr0p7oi-235" target="yqwSmFySM0pPCRr0p7oi-242">
          <mxGeometry relative="1" as="geometry" />
        </mxCell>
        <mxCell id="yqwSmFySM0pPCRr0p7oi-235" value="Double Back Tuck With 1/1 Twist In" style="whiteSpace=wrap;html=1;fillColor=#cce5ff;strokeColor=#36393d;" vertex="1" parent="1">
          <mxGeometry x="2256" y="1040" width="120" height="60" as="geometry" />
        </mxCell>
        <mxCell id="yqwSmFySM0pPCRr0p7oi-236" value="" style="edgeStyle=orthogonalEdgeStyle;rounded=0;orthogonalLoop=1;jettySize=auto;html=1;fillColor=#cce5ff;strokeColor=#36393d;" edge="1" parent="1" source="yqwSmFySM0pPCRr0p7oi-237" target="yqwSmFySM0pPCRr0p7oi-239">
          <mxGeometry relative="1" as="geometry" />
        </mxCell>
        <mxCell id="yqwSmFySM0pPCRr0p7oi-237" value="Ballout Piked With 1/2 Twist" style="whiteSpace=wrap;html=1;fillColor=#cce5ff;strokeColor=#36393d;" vertex="1" parent="1">
          <mxGeometry x="1877" y="-69" width="120" height="60" as="geometry" />
        </mxCell>
        <mxCell id="yqwSmFySM0pPCRr0p7oi-238" value="" style="edgeStyle=orthogonalEdgeStyle;rounded=0;orthogonalLoop=1;jettySize=auto;html=1;fillColor=#cce5ff;strokeColor=#36393d;" edge="1" parent="1" source="yqwSmFySM0pPCRr0p7oi-239" target="yqwSmFySM0pPCRr0p7oi-240">
          <mxGeometry relative="1" as="geometry" />
        </mxCell>
        <mxCell id="yqwSmFySM0pPCRr0p7oi-239" value="Ballout Piked With 1/1 Twist" style="whiteSpace=wrap;html=1;fillColor=#cce5ff;strokeColor=#36393d;" vertex="1" parent="1">
          <mxGeometry x="2072" y="-69" width="120" height="60" as="geometry" />
        </mxCell>
        <mxCell id="yqwSmFySM0pPCRr0p7oi-240" value="Ballout Piked With 3/2 Twist" style="whiteSpace=wrap;html=1;fillColor=#cce5ff;strokeColor=#36393d;" vertex="1" parent="1">
          <mxGeometry x="2253" y="-69" width="120" height="60" as="geometry" />
        </mxCell>
        <mxCell id="yqwSmFySM0pPCRr0p7oi-241" value="" style="edgeStyle=orthogonalEdgeStyle;rounded=0;orthogonalLoop=1;jettySize=auto;html=1;fillColor=#cce5ff;strokeColor=#36393d;" edge="1" parent="1" source="yqwSmFySM0pPCRr0p7oi-242" target="yqwSmFySM0pPCRr0p7oi-254">
          <mxGeometry relative="1" as="geometry" />
        </mxCell>
        <mxCell id="yqwSmFySM0pPCRr0p7oi-242" value="Double Back Tuck With 1/2 Twist In, 1/2 Twist Out" style="whiteSpace=wrap;html=1;fillColor=#cce5ff;strokeColor=#36393d;" vertex="1" parent="1">
          <mxGeometry x="2416" y="1200" width="120" height="60" as="geometry" />
        </mxCell>
        <mxCell id="yqwSmFySM0pPCRr0p7oi-243" style="edgeStyle=orthogonalEdgeStyle;rounded=0;orthogonalLoop=1;jettySize=auto;html=1;entryX=0;entryY=0.5;entryDx=0;entryDy=0;fillColor=#cce5ff;strokeColor=#36393d;" edge="1" parent="1" source="yqwSmFySM0pPCRr0p7oi-244" target="yqwSmFySM0pPCRr0p7oi-246">
          <mxGeometry relative="1" as="geometry" />
        </mxCell>
        <mxCell id="yqwSmFySM0pPCRr0p7oi-244" value="1 &amp;amp; 1/4 Back Tuck With 1/1 Twist" style="whiteSpace=wrap;html=1;fillColor=#cce5ff;strokeColor=#36393d;" vertex="1" parent="1">
          <mxGeometry x="1966" y="1250" width="120" height="60" as="geometry" />
        </mxCell>
        <mxCell id="yqwSmFySM0pPCRr0p7oi-245" style="edgeStyle=orthogonalEdgeStyle;rounded=0;orthogonalLoop=1;jettySize=auto;html=1;fillColor=#cce5ff;strokeColor=#36393d;" edge="1" parent="1" source="yqwSmFySM0pPCRr0p7oi-246" target="yqwSmFySM0pPCRr0p7oi-242">
          <mxGeometry relative="1" as="geometry" />
        </mxCell>
        <mxCell id="yqwSmFySM0pPCRr0p7oi-246" value="Double Back Tuck With 1/1 Twist In" style="whiteSpace=wrap;html=1;fillColor=#cce5ff;strokeColor=#36393d;" vertex="1" parent="1">
          <mxGeometry x="2256" y="1250" width="120" height="60" as="geometry" />
        </mxCell>
        <mxCell id="yqwSmFySM0pPCRr0p7oi-247" value="" style="edgeStyle=orthogonalEdgeStyle;rounded=0;orthogonalLoop=1;jettySize=auto;html=1;fillColor=#cce5ff;strokeColor=#36393d;" edge="1" parent="1" source="yqwSmFySM0pPCRr0p7oi-248" target="yqwSmFySM0pPCRr0p7oi-359">
          <mxGeometry relative="1" as="geometry" />
        </mxCell>
        <mxCell id="yqwSmFySM0pPCRr0p7oi-248" value="Jump 2/1 Twist" style="ellipse;whiteSpace=wrap;html=1;fillColor=#cce5ff;strokeColor=#36393d;" vertex="1" parent="1">
          <mxGeometry x="630" y="470" width="120" height="80" as="geometry" />
        </mxCell>
        <mxCell id="yqwSmFySM0pPCRr0p7oi-249" style="edgeStyle=orthogonalEdgeStyle;rounded=0;orthogonalLoop=1;jettySize=auto;html=1;entryX=0.5;entryY=0;entryDx=0;entryDy=0;fillColor=#cce5ff;strokeColor=#36393d;" edge="1" parent="1" source="yqwSmFySM0pPCRr0p7oi-250" target="yqwSmFySM0pPCRr0p7oi-163">
          <mxGeometry relative="1" as="geometry" />
        </mxCell>
        <mxCell id="yqwSmFySM0pPCRr0p7oi-250" value="Back Tuck With Early 1/2 Twist (Arabian)" style="whiteSpace=wrap;html=1;fillColor=#cce5ff;strokeColor=#36393d;" vertex="1" parent="1">
          <mxGeometry x="1400" y="750" width="120" height="60" as="geometry" />
        </mxCell>
        <mxCell id="yqwSmFySM0pPCRr0p7oi-251" style="edgeStyle=orthogonalEdgeStyle;rounded=0;orthogonalLoop=1;jettySize=auto;html=1;entryX=0;entryY=0.5;entryDx=0;entryDy=0;fillColor=#cce5ff;strokeColor=#36393d;" edge="1" parent="1" source="yqwSmFySM0pPCRr0p7oi-252" target="yqwSmFySM0pPCRr0p7oi-151">
          <mxGeometry relative="1" as="geometry" />
        </mxCell>
        <mxCell id="yqwSmFySM0pPCRr0p7oi-252" value="Cruise" style="ellipse;whiteSpace=wrap;html=1;fillColor=#cce5ff;strokeColor=#36393d;" vertex="1" parent="1">
          <mxGeometry x="1626" y="1040" width="120" height="60" as="geometry" />
        </mxCell>
        <mxCell id="yqwSmFySM0pPCRr0p7oi-253" value="" style="edgeStyle=orthogonalEdgeStyle;rounded=0;orthogonalLoop=1;jettySize=auto;html=1;fillColor=#cce5ff;strokeColor=#36393d;" edge="1" parent="1" source="yqwSmFySM0pPCRr0p7oi-254" target="yqwSmFySM0pPCRr0p7oi-255">
          <mxGeometry relative="1" as="geometry" />
        </mxCell>
        <mxCell id="yqwSmFySM0pPCRr0p7oi-254" value="Double Back Tuck With 1/1 Twist In, 1/2 Twist Out" style="whiteSpace=wrap;html=1;fillColor=#cce5ff;strokeColor=#36393d;" vertex="1" parent="1">
          <mxGeometry x="2566" y="1200" width="120" height="60" as="geometry" />
        </mxCell>
        <mxCell id="yqwSmFySM0pPCRr0p7oi-255" value="Double Back Tuck With 1/1 Twist In, 1/1 Twist Out" style="whiteSpace=wrap;html=1;fillColor=#cce5ff;strokeColor=#36393d;" vertex="1" parent="1">
          <mxGeometry x="2706" y="1200" width="120" height="60" as="geometry" />
        </mxCell>
        <mxCell id="yqwSmFySM0pPCRr0p7oi-256" value="" style="edgeStyle=orthogonalEdgeStyle;rounded=0;orthogonalLoop=1;jettySize=auto;html=1;fillColor=#cce5ff;strokeColor=#36393d;" edge="1" parent="1" source="yqwSmFySM0pPCRr0p7oi-257" target="yqwSmFySM0pPCRr0p7oi-244">
          <mxGeometry relative="1" as="geometry" />
        </mxCell>
        <mxCell id="yqwSmFySM0pPCRr0p7oi-257" value="Back Layout With 1/1 Twist" style="ellipse;whiteSpace=wrap;html=1;fillColor=#cce5ff;strokeColor=#36393d;" vertex="1" parent="1">
          <mxGeometry x="1806" y="1240" width="120" height="80" as="geometry" />
        </mxCell>
        <mxCell id="yqwSmFySM0pPCRr0p7oi-258" value="" style="edgeStyle=orthogonalEdgeStyle;rounded=0;orthogonalLoop=1;jettySize=auto;html=1;fillColor=#cce5ff;strokeColor=#36393d;" edge="1" parent="1" source="yqwSmFySM0pPCRr0p7oi-259" target="yqwSmFySM0pPCRr0p7oi-233">
          <mxGeometry relative="1" as="geometry" />
        </mxCell>
        <mxCell id="yqwSmFySM0pPCRr0p7oi-259" value="Back 1&amp;amp; 3/4 With 1/2 Twist In" style="whiteSpace=wrap;html=1;fillColor=#cce5ff;strokeColor=#36393d;" vertex="1" parent="1">
          <mxGeometry x="1966" y="1040" width="120" height="60" as="geometry" />
        </mxCell>
        <mxCell id="yqwSmFySM0pPCRr0p7oi-260" value="" style="edgeStyle=orthogonalEdgeStyle;rounded=0;orthogonalLoop=1;jettySize=auto;html=1;fillColor=#cce5ff;strokeColor=#36393d;" edge="1" parent="1" source="yqwSmFySM0pPCRr0p7oi-151" target="yqwSmFySM0pPCRr0p7oi-259">
          <mxGeometry relative="1" as="geometry" />
        </mxCell>
        <mxCell id="yqwSmFySM0pPCRr0p7oi-261" value="" style="edgeStyle=orthogonalEdgeStyle;rounded=0;orthogonalLoop=1;jettySize=auto;html=1;fillColor=#cce5ff;strokeColor=#36393d;" edge="1" parent="1" source="yqwSmFySM0pPCRr0p7oi-262" target="yqwSmFySM0pPCRr0p7oi-264">
          <mxGeometry relative="1" as="geometry" />
        </mxCell>
        <mxCell id="yqwSmFySM0pPCRr0p7oi-262" value="1 &amp;amp; 1/4 Back Layout With Late 1/2 to Front Drop" style="whiteSpace=wrap;html=1;fillColor=#cce5ff;strokeColor=#36393d;" vertex="1" parent="1">
          <mxGeometry x="2416" y="1300" width="120" height="60" as="geometry" />
        </mxCell>
        <mxCell id="yqwSmFySM0pPCRr0p7oi-263" style="edgeStyle=orthogonalEdgeStyle;rounded=0;orthogonalLoop=1;jettySize=auto;html=1;entryX=0;entryY=0.5;entryDx=0;entryDy=0;fillColor=#cce5ff;strokeColor=#36393d;" edge="1" parent="1" source="yqwSmFySM0pPCRr0p7oi-264" target="yqwSmFySM0pPCRr0p7oi-266">
          <mxGeometry relative="1" as="geometry" />
        </mxCell>
        <mxCell id="yqwSmFySM0pPCRr0p7oi-264" value="Double Back Layout With 1/2 Twist Out" style="whiteSpace=wrap;html=1;fillColor=#cce5ff;strokeColor=#36393d;" vertex="1" parent="1">
          <mxGeometry x="2416" y="1370" width="120" height="60" as="geometry" />
        </mxCell>
        <mxCell id="yqwSmFySM0pPCRr0p7oi-265" style="edgeStyle=orthogonalEdgeStyle;rounded=0;orthogonalLoop=1;jettySize=auto;html=1;entryX=0;entryY=0.5;entryDx=0;entryDy=0;fillColor=#cce5ff;strokeColor=#36393d;" edge="1" parent="1" source="yqwSmFySM0pPCRr0p7oi-266" target="yqwSmFySM0pPCRr0p7oi-272">
          <mxGeometry relative="1" as="geometry" />
        </mxCell>
        <mxCell id="yqwSmFySM0pPCRr0p7oi-266" value="Double Back Layout With 1/1 Twist Out" style="whiteSpace=wrap;html=1;fillColor=#cce5ff;strokeColor=#36393d;" vertex="1" parent="1">
          <mxGeometry x="2856" y="1370" width="120" height="60" as="geometry" />
        </mxCell>
        <mxCell id="yqwSmFySM0pPCRr0p7oi-267" value="" style="edgeStyle=orthogonalEdgeStyle;rounded=0;orthogonalLoop=1;jettySize=auto;html=1;fillColor=#cce5ff;strokeColor=#36393d;" edge="1" parent="1" source="yqwSmFySM0pPCRr0p7oi-268" target="yqwSmFySM0pPCRr0p7oi-270">
          <mxGeometry relative="1" as="geometry" />
        </mxCell>
        <mxCell id="yqwSmFySM0pPCRr0p7oi-268" value="Back Layout With 1/2 Twist In, Front Out (Arabian Double)" style="whiteSpace=wrap;html=1;fillColor=#cce5ff;strokeColor=#36393d;" vertex="1" parent="1">
          <mxGeometry x="2706" y="1300" width="120" height="60" as="geometry" />
        </mxCell>
        <mxCell id="yqwSmFySM0pPCRr0p7oi-269" style="edgeStyle=orthogonalEdgeStyle;rounded=0;orthogonalLoop=1;jettySize=auto;html=1;entryX=0.5;entryY=0;entryDx=0;entryDy=0;fillColor=#cce5ff;strokeColor=#36393d;" edge="1" parent="1" source="yqwSmFySM0pPCRr0p7oi-270" target="yqwSmFySM0pPCRr0p7oi-272">
          <mxGeometry relative="1" as="geometry" />
        </mxCell>
        <mxCell id="yqwSmFySM0pPCRr0p7oi-270" value="Double Back Layout With 1/1 Twist In" style="whiteSpace=wrap;html=1;fillColor=#cce5ff;strokeColor=#36393d;" vertex="1" parent="1">
          <mxGeometry x="2856" y="1300" width="120" height="60" as="geometry" />
        </mxCell>
        <mxCell id="yqwSmFySM0pPCRr0p7oi-271" value="" style="edgeStyle=orthogonalEdgeStyle;rounded=0;orthogonalLoop=1;jettySize=auto;html=1;fillColor=#cce5ff;strokeColor=#36393d;" edge="1" parent="1" source="yqwSmFySM0pPCRr0p7oi-272" target="yqwSmFySM0pPCRr0p7oi-278">
          <mxGeometry relative="1" as="geometry" />
        </mxCell>
        <mxCell id="yqwSmFySM0pPCRr0p7oi-272" value="Double Back Layout With 1/2 Twist In, 1/2 Twist Out" style="whiteSpace=wrap;html=1;fillColor=#cce5ff;strokeColor=#36393d;" vertex="1" parent="1">
          <mxGeometry x="3016" y="1400" width="120" height="60" as="geometry" />
        </mxCell>
        <mxCell id="yqwSmFySM0pPCRr0p7oi-273" style="edgeStyle=orthogonalEdgeStyle;rounded=0;orthogonalLoop=1;jettySize=auto;html=1;entryX=0;entryY=0.5;entryDx=0;entryDy=0;fillColor=#cce5ff;strokeColor=#36393d;" edge="1" parent="1" source="yqwSmFySM0pPCRr0p7oi-274" target="yqwSmFySM0pPCRr0p7oi-276">
          <mxGeometry relative="1" as="geometry" />
        </mxCell>
        <mxCell id="yqwSmFySM0pPCRr0p7oi-274" value="1&amp;amp; 1/4 Back Layout With 1/1 Twist&amp;nbsp;" style="whiteSpace=wrap;html=1;fillColor=#cce5ff;strokeColor=#36393d;" vertex="1" parent="1">
          <mxGeometry x="2416" y="1440" width="120" height="60" as="geometry" />
        </mxCell>
        <mxCell id="yqwSmFySM0pPCRr0p7oi-275" style="edgeStyle=orthogonalEdgeStyle;rounded=0;orthogonalLoop=1;jettySize=auto;html=1;fillColor=#cce5ff;strokeColor=#36393d;" edge="1" parent="1" source="yqwSmFySM0pPCRr0p7oi-276" target="yqwSmFySM0pPCRr0p7oi-272">
          <mxGeometry relative="1" as="geometry" />
        </mxCell>
        <mxCell id="yqwSmFySM0pPCRr0p7oi-276" value="Double Back Layout With 1/1 Twist In" style="whiteSpace=wrap;html=1;fillColor=#cce5ff;strokeColor=#36393d;" vertex="1" parent="1">
          <mxGeometry x="2856" y="1440" width="120" height="60" as="geometry" />
        </mxCell>
        <mxCell id="yqwSmFySM0pPCRr0p7oi-277" value="" style="edgeStyle=orthogonalEdgeStyle;rounded=0;orthogonalLoop=1;jettySize=auto;html=1;fillColor=#cce5ff;strokeColor=#36393d;" edge="1" parent="1" source="yqwSmFySM0pPCRr0p7oi-278" target="yqwSmFySM0pPCRr0p7oi-280">
          <mxGeometry relative="1" as="geometry" />
        </mxCell>
        <mxCell id="yqwSmFySM0pPCRr0p7oi-278" value="Double Layout TWith 1/1 Twist In, 1/2 Twist Out" style="whiteSpace=wrap;html=1;fillColor=#cce5ff;strokeColor=#36393d;" vertex="1" parent="1">
          <mxGeometry x="3156" y="1400" width="120" height="60" as="geometry" />
        </mxCell>
        <mxCell id="yqwSmFySM0pPCRr0p7oi-279" value="" style="edgeStyle=orthogonalEdgeStyle;rounded=0;orthogonalLoop=1;jettySize=auto;html=1;fillColor=#cce5ff;strokeColor=#36393d;" edge="1" parent="1" source="yqwSmFySM0pPCRr0p7oi-280" target="yqwSmFySM0pPCRr0p7oi-373">
          <mxGeometry relative="1" as="geometry" />
        </mxCell>
        <mxCell id="yqwSmFySM0pPCRr0p7oi-280" value="Double Back Layout With 1/1 Twist In, 1/1 Twist Out" style="whiteSpace=wrap;html=1;fillColor=#cce5ff;strokeColor=#36393d;" vertex="1" parent="1">
          <mxGeometry x="3296" y="1400" width="120" height="60" as="geometry" />
        </mxCell>
        <mxCell id="yqwSmFySM0pPCRr0p7oi-281" value="" style="edgeStyle=orthogonalEdgeStyle;rounded=0;orthogonalLoop=1;jettySize=auto;html=1;fillColor=#cce5ff;strokeColor=#36393d;" edge="1" parent="1" source="yqwSmFySM0pPCRr0p7oi-282" target="yqwSmFySM0pPCRr0p7oi-268">
          <mxGeometry relative="1" as="geometry" />
        </mxCell>
        <mxCell id="yqwSmFySM0pPCRr0p7oi-282" value="Back Layout 1&amp;amp; 3/4 With 1/2 Twist In" style="whiteSpace=wrap;html=1;fillColor=#cce5ff;strokeColor=#36393d;" vertex="1" parent="1">
          <mxGeometry x="2566" y="1300" width="120" height="60" as="geometry" />
        </mxCell>
        <mxCell id="yqwSmFySM0pPCRr0p7oi-283" value="" style="edgeStyle=orthogonalEdgeStyle;rounded=0;orthogonalLoop=1;jettySize=auto;html=1;fillColor=#cce5ff;strokeColor=#36393d;" edge="1" parent="1" source="yqwSmFySM0pPCRr0p7oi-262" target="yqwSmFySM0pPCRr0p7oi-282">
          <mxGeometry relative="1" as="geometry" />
        </mxCell>
        <mxCell id="yqwSmFySM0pPCRr0p7oi-284" style="edgeStyle=orthogonalEdgeStyle;rounded=0;orthogonalLoop=1;jettySize=auto;html=1;entryX=0;entryY=0.5;entryDx=0;entryDy=0;fillColor=#cce5ff;strokeColor=#36393d;" edge="1" parent="1" source="yqwSmFySM0pPCRr0p7oi-285" target="yqwSmFySM0pPCRr0p7oi-120">
          <mxGeometry relative="1" as="geometry" />
        </mxCell>
        <mxCell id="yqwSmFySM0pPCRr0p7oi-285" value="Pull Over 1/2 Twist to Flat Back" style="whiteSpace=wrap;html=1;fillColor=#cce5ff;strokeColor=#36393d;" vertex="1" parent="1">
          <mxGeometry x="1140" y="900" width="120" height="60" as="geometry" />
        </mxCell>
        <mxCell id="yqwSmFySM0pPCRr0p7oi-286" value="" style="edgeStyle=orthogonalEdgeStyle;rounded=0;orthogonalLoop=1;jettySize=auto;html=1;endArrow=none;fillColor=#cce5ff;strokeColor=#36393d;" edge="1" parent="1" source="yqwSmFySM0pPCRr0p7oi-80" target="yqwSmFySM0pPCRr0p7oi-285">
          <mxGeometry relative="1" as="geometry">
            <mxPoint x="1080" y="930" as="sourcePoint" />
            <mxPoint x="1280" y="1030" as="targetPoint" />
          </mxGeometry>
        </mxCell>
        <mxCell id="yqwSmFySM0pPCRr0p7oi-287" value="Trampoline Tree" style="rounded=0;whiteSpace=wrap;html=1;fillColor=#cce5ff;strokeColor=#36393d;" vertex="1" parent="1">
          <mxGeometry x="-360" y="340" width="120" height="120" as="geometry" />
        </mxCell>
        <mxCell id="yqwSmFySM0pPCRr0p7oi-288" value="" style="edgeStyle=orthogonalEdgeStyle;rounded=0;orthogonalLoop=1;jettySize=auto;html=1;entryX=0;entryY=0.5;entryDx=0;entryDy=0;endArrow=none;fillColor=#cce5ff;strokeColor=#36393d;" edge="1" parent="1" target="yqwSmFySM0pPCRr0p7oi-287">
          <mxGeometry relative="1" as="geometry">
            <mxPoint x="-360" y="400" as="sourcePoint" />
            <mxPoint x="-200" y="400" as="targetPoint" />
          </mxGeometry>
        </mxCell>
        <mxCell id="yqwSmFySM0pPCRr0p7oi-289" value="Double Front Pike With 3/2 Twist Out" style="whiteSpace=wrap;html=1;fillColor=#cce5ff;strokeColor=#36393d;" vertex="1" parent="1">
          <mxGeometry x="3378" y="530" width="120" height="60" as="geometry" />
        </mxCell>
        <mxCell id="yqwSmFySM0pPCRr0p7oi-290" style="edgeStyle=orthogonalEdgeStyle;rounded=0;orthogonalLoop=1;jettySize=auto;html=1;entryX=0;entryY=0.5;entryDx=0;entryDy=0;fillColor=#cce5ff;strokeColor=#36393d;" edge="1" parent="1" source="yqwSmFySM0pPCRr0p7oi-293" target="yqwSmFySM0pPCRr0p7oi-296">
          <mxGeometry relative="1" as="geometry" />
        </mxCell>
        <mxCell id="yqwSmFySM0pPCRr0p7oi-291" style="edgeStyle=orthogonalEdgeStyle;rounded=0;orthogonalLoop=1;jettySize=auto;html=1;entryX=0;entryY=0.5;entryDx=0;entryDy=0;fillColor=#cce5ff;strokeColor=#36393d;" edge="1" parent="1" source="yqwSmFySM0pPCRr0p7oi-293" target="yqwSmFySM0pPCRr0p7oi-299">
          <mxGeometry relative="1" as="geometry" />
        </mxCell>
        <mxCell id="yqwSmFySM0pPCRr0p7oi-292" style="edgeStyle=orthogonalEdgeStyle;rounded=0;orthogonalLoop=1;jettySize=auto;html=1;entryX=0;entryY=0.5;entryDx=0;entryDy=0;fillColor=#cce5ff;strokeColor=#36393d;" edge="1" parent="1" source="yqwSmFySM0pPCRr0p7oi-293" target="yqwSmFySM0pPCRr0p7oi-320">
          <mxGeometry relative="1" as="geometry">
            <Array as="points">
              <mxPoint x="2670" y="1180" />
            </Array>
          </mxGeometry>
        </mxCell>
        <mxCell id="yqwSmFySM0pPCRr0p7oi-293" value="Double Front Layout" style="whiteSpace=wrap;html=1;fillColor=#cce5ff;strokeColor=#36393d;" vertex="1" parent="1">
          <mxGeometry x="2610" y="750" width="120" height="60" as="geometry" />
        </mxCell>
        <mxCell id="yqwSmFySM0pPCRr0p7oi-294" value="" style="edgeStyle=orthogonalEdgeStyle;rounded=0;orthogonalLoop=1;jettySize=auto;html=1;fillColor=#cce5ff;strokeColor=#36393d;" edge="1" parent="1" source="yqwSmFySM0pPCRr0p7oi-296" target="yqwSmFySM0pPCRr0p7oi-301">
          <mxGeometry relative="1" as="geometry" />
        </mxCell>
        <mxCell id="yqwSmFySM0pPCRr0p7oi-295" style="edgeStyle=orthogonalEdgeStyle;rounded=0;orthogonalLoop=1;jettySize=auto;html=1;entryX=0;entryY=0.5;entryDx=0;entryDy=0;fillColor=#cce5ff;strokeColor=#36393d;" edge="1" parent="1" source="yqwSmFySM0pPCRr0p7oi-296" target="yqwSmFySM0pPCRr0p7oi-313">
          <mxGeometry relative="1" as="geometry" />
        </mxCell>
        <mxCell id="yqwSmFySM0pPCRr0p7oi-296" value="Double Front Layout with 1/2 Twist In" style="whiteSpace=wrap;html=1;fillColor=#cce5ff;strokeColor=#36393d;" vertex="1" parent="1">
          <mxGeometry x="2812" y="750" width="120" height="60" as="geometry" />
        </mxCell>
        <mxCell id="yqwSmFySM0pPCRr0p7oi-297" value="" style="edgeStyle=orthogonalEdgeStyle;rounded=0;orthogonalLoop=1;jettySize=auto;html=1;fillColor=#cce5ff;strokeColor=#36393d;" edge="1" parent="1" source="yqwSmFySM0pPCRr0p7oi-299" target="yqwSmFySM0pPCRr0p7oi-305">
          <mxGeometry relative="1" as="geometry" />
        </mxCell>
        <mxCell id="yqwSmFySM0pPCRr0p7oi-298" style="edgeStyle=orthogonalEdgeStyle;rounded=0;orthogonalLoop=1;jettySize=auto;html=1;entryX=0.5;entryY=1;entryDx=0;entryDy=0;fillColor=#cce5ff;strokeColor=#36393d;" edge="1" parent="1" source="yqwSmFySM0pPCRr0p7oi-299" target="yqwSmFySM0pPCRr0p7oi-308">
          <mxGeometry relative="1" as="geometry">
            <Array as="points">
              <mxPoint x="2872" y="930" />
              <mxPoint x="3232" y="930" />
            </Array>
          </mxGeometry>
        </mxCell>
        <mxCell id="yqwSmFySM0pPCRr0p7oi-299" value="Double Front Layout With 1/2 Twist Out" style="whiteSpace=wrap;html=1;fillColor=#cce5ff;strokeColor=#36393d;" vertex="1" parent="1">
          <mxGeometry x="2810" y="949" width="120" height="60" as="geometry" />
        </mxCell>
        <mxCell id="yqwSmFySM0pPCRr0p7oi-300" value="" style="edgeStyle=orthogonalEdgeStyle;rounded=0;orthogonalLoop=1;jettySize=auto;html=1;fillColor=#cce5ff;strokeColor=#36393d;" edge="1" parent="1" source="yqwSmFySM0pPCRr0p7oi-301" target="yqwSmFySM0pPCRr0p7oi-308">
          <mxGeometry relative="1" as="geometry" />
        </mxCell>
        <mxCell id="yqwSmFySM0pPCRr0p7oi-301" value="Double Front Layout With 1/1 Twist In" style="whiteSpace=wrap;html=1;fillColor=#cce5ff;strokeColor=#36393d;" vertex="1" parent="1">
          <mxGeometry x="3002" y="750" width="120" height="60" as="geometry" />
        </mxCell>
        <mxCell id="yqwSmFySM0pPCRr0p7oi-302" value="" style="edgeStyle=orthogonalEdgeStyle;rounded=0;orthogonalLoop=1;jettySize=auto;html=1;fillColor=#cce5ff;strokeColor=#36393d;" edge="1" parent="1" source="yqwSmFySM0pPCRr0p7oi-303" target="yqwSmFySM0pPCRr0p7oi-310">
          <mxGeometry relative="1" as="geometry" />
        </mxCell>
        <mxCell id="yqwSmFySM0pPCRr0p7oi-303" value="Double Front Layout With 1/2 Twist Out" style="whiteSpace=wrap;html=1;fillColor=#cce5ff;strokeColor=#36393d;" vertex="1" parent="1">
          <mxGeometry x="3002" y="1049" width="120" height="60" as="geometry" />
        </mxCell>
        <mxCell id="yqwSmFySM0pPCRr0p7oi-304" value="" style="edgeStyle=orthogonalEdgeStyle;rounded=0;orthogonalLoop=1;jettySize=auto;html=1;fillColor=#cce5ff;strokeColor=#36393d;" edge="1" parent="1" source="yqwSmFySM0pPCRr0p7oi-305" target="yqwSmFySM0pPCRr0p7oi-306">
          <mxGeometry relative="1" as="geometry" />
        </mxCell>
        <mxCell id="yqwSmFySM0pPCRr0p7oi-305" value="Double Front Layout With 1/1 Twist Out" style="whiteSpace=wrap;html=1;fillColor=#cce5ff;strokeColor=#36393d;" vertex="1" parent="1">
          <mxGeometry x="3002" y="949" width="120" height="60" as="geometry" />
        </mxCell>
        <mxCell id="yqwSmFySM0pPCRr0p7oi-306" value="Double Front Layout With 3/2 Twist Out" style="whiteSpace=wrap;html=1;fillColor=#cce5ff;strokeColor=#36393d;" vertex="1" parent="1">
          <mxGeometry x="3182" y="949" width="120" height="60" as="geometry" />
        </mxCell>
        <mxCell id="yqwSmFySM0pPCRr0p7oi-307" value="" style="edgeStyle=orthogonalEdgeStyle;rounded=0;orthogonalLoop=1;jettySize=auto;html=1;fillColor=#cce5ff;strokeColor=#36393d;" edge="1" parent="1" source="yqwSmFySM0pPCRr0p7oi-308" target="yqwSmFySM0pPCRr0p7oi-311">
          <mxGeometry relative="1" as="geometry" />
        </mxCell>
        <mxCell id="yqwSmFySM0pPCRr0p7oi-308" value="Double Front Layout With 1/1 Twist In, 1/2 Twist Out" style="whiteSpace=wrap;html=1;fillColor=#cce5ff;strokeColor=#36393d;" vertex="1" parent="1">
          <mxGeometry x="3172" y="750" width="120" height="60" as="geometry" />
        </mxCell>
        <mxCell id="yqwSmFySM0pPCRr0p7oi-309" value="" style="edgeStyle=orthogonalEdgeStyle;rounded=0;orthogonalLoop=1;jettySize=auto;html=1;fillColor=#cce5ff;strokeColor=#36393d;" edge="1" parent="1" source="yqwSmFySM0pPCRr0p7oi-310" target="yqwSmFySM0pPCRr0p7oi-316">
          <mxGeometry relative="1" as="geometry" />
        </mxCell>
        <mxCell id="yqwSmFySM0pPCRr0p7oi-310" value="Double Front Layout With 1/1 Twist Out" style="whiteSpace=wrap;html=1;fillColor=#cce5ff;strokeColor=#36393d;" vertex="1" parent="1">
          <mxGeometry x="3182" y="1049" width="120" height="60" as="geometry" />
        </mxCell>
        <mxCell id="yqwSmFySM0pPCRr0p7oi-311" value="Double Front Layout With 1/1 Twist In, !/1/ Twist Out" style="whiteSpace=wrap;html=1;fillColor=#cce5ff;strokeColor=#36393d;" vertex="1" parent="1">
          <mxGeometry x="3332" y="750" width="120" height="60" as="geometry" />
        </mxCell>
        <mxCell id="yqwSmFySM0pPCRr0p7oi-312" value="" style="edgeStyle=orthogonalEdgeStyle;rounded=0;orthogonalLoop=1;jettySize=auto;html=1;fillColor=#cce5ff;strokeColor=#36393d;" edge="1" parent="1" source="yqwSmFySM0pPCRr0p7oi-313" target="yqwSmFySM0pPCRr0p7oi-315">
          <mxGeometry relative="1" as="geometry" />
        </mxCell>
        <mxCell id="yqwSmFySM0pPCRr0p7oi-313" value="Double Front Layout With 1/2 Twist In, 1/2 Twist Out" style="whiteSpace=wrap;html=1;fillColor=#cce5ff;strokeColor=#36393d;" vertex="1" parent="1">
          <mxGeometry x="3002" y="640" width="120" height="60" as="geometry" />
        </mxCell>
        <mxCell id="yqwSmFySM0pPCRr0p7oi-314" style="edgeStyle=orthogonalEdgeStyle;rounded=0;orthogonalLoop=1;jettySize=auto;html=1;entryX=0.5;entryY=0;entryDx=0;entryDy=0;fillColor=#cce5ff;strokeColor=#36393d;" edge="1" parent="1" source="yqwSmFySM0pPCRr0p7oi-315" target="yqwSmFySM0pPCRr0p7oi-311">
          <mxGeometry relative="1" as="geometry" />
        </mxCell>
        <mxCell id="yqwSmFySM0pPCRr0p7oi-315" value="Double Front Layout With 1/2 Twist In, 1/1 Twist Out" style="whiteSpace=wrap;html=1;fillColor=#cce5ff;strokeColor=#36393d;" vertex="1" parent="1">
          <mxGeometry x="3172" y="640" width="120" height="60" as="geometry" />
        </mxCell>
        <mxCell id="yqwSmFySM0pPCRr0p7oi-316" value="Double Front Layout With 3/2 Twist Out" style="whiteSpace=wrap;html=1;fillColor=#cce5ff;strokeColor=#36393d;" vertex="1" parent="1">
          <mxGeometry x="3332" y="1049" width="120" height="60" as="geometry" />
        </mxCell>
        <mxCell id="yqwSmFySM0pPCRr0p7oi-317" value="" style="edgeStyle=orthogonalEdgeStyle;rounded=0;orthogonalLoop=1;jettySize=auto;html=1;fillColor=#cce5ff;strokeColor=#36393d;" edge="1" parent="1" source="yqwSmFySM0pPCRr0p7oi-320" target="yqwSmFySM0pPCRr0p7oi-322">
          <mxGeometry relative="1" as="geometry" />
        </mxCell>
        <mxCell id="yqwSmFySM0pPCRr0p7oi-318" style="edgeStyle=orthogonalEdgeStyle;rounded=0;orthogonalLoop=1;jettySize=auto;html=1;entryX=0;entryY=0.5;entryDx=0;entryDy=0;fillColor=#cce5ff;strokeColor=#36393d;" edge="1" parent="1" source="yqwSmFySM0pPCRr0p7oi-320" target="yqwSmFySM0pPCRr0p7oi-339">
          <mxGeometry relative="1" as="geometry" />
        </mxCell>
        <mxCell id="yqwSmFySM0pPCRr0p7oi-319" style="edgeStyle=orthogonalEdgeStyle;rounded=0;orthogonalLoop=1;jettySize=auto;html=1;entryX=0;entryY=0.5;entryDx=0;entryDy=0;fillColor=#cce5ff;strokeColor=#36393d;" edge="1" parent="1" source="yqwSmFySM0pPCRr0p7oi-320" target="yqwSmFySM0pPCRr0p7oi-342">
          <mxGeometry relative="1" as="geometry">
            <Array as="points">
              <mxPoint x="3750" y="1420" />
            </Array>
          </mxGeometry>
        </mxCell>
        <mxCell id="yqwSmFySM0pPCRr0p7oi-320" value="Triple Front Tuck" style="whiteSpace=wrap;html=1;fillColor=#cce5ff;strokeColor=#36393d;" vertex="1" parent="1">
          <mxGeometry x="3610" y="1150" width="120" height="60" as="geometry" />
        </mxCell>
        <mxCell id="yqwSmFySM0pPCRr0p7oi-321" value="" style="edgeStyle=orthogonalEdgeStyle;rounded=0;orthogonalLoop=1;jettySize=auto;html=1;fillColor=#cce5ff;strokeColor=#36393d;" edge="1" parent="1" source="yqwSmFySM0pPCRr0p7oi-322" target="yqwSmFySM0pPCRr0p7oi-340">
          <mxGeometry relative="1" as="geometry" />
        </mxCell>
        <mxCell id="yqwSmFySM0pPCRr0p7oi-322" value="Triple Front Pike" style="whiteSpace=wrap;html=1;fillColor=#cce5ff;strokeColor=#36393d;" vertex="1" parent="1">
          <mxGeometry x="3860" y="1150" width="120" height="60" as="geometry" />
        </mxCell>
        <mxCell id="yqwSmFySM0pPCRr0p7oi-323" value="" style="edgeStyle=orthogonalEdgeStyle;rounded=0;orthogonalLoop=1;jettySize=auto;html=1;fillColor=#cce5ff;strokeColor=#36393d;" edge="1" parent="1" source="yqwSmFySM0pPCRr0p7oi-325" target="yqwSmFySM0pPCRr0p7oi-326">
          <mxGeometry relative="1" as="geometry" />
        </mxCell>
        <mxCell id="yqwSmFySM0pPCRr0p7oi-324" style="edgeStyle=orthogonalEdgeStyle;rounded=0;orthogonalLoop=1;jettySize=auto;html=1;entryX=0;entryY=0.5;entryDx=0;entryDy=0;fillColor=#cce5ff;strokeColor=#36393d;" edge="1" parent="1" source="yqwSmFySM0pPCRr0p7oi-325" target="yqwSmFySM0pPCRr0p7oi-342">
          <mxGeometry relative="1" as="geometry">
            <Array as="points">
              <mxPoint x="3750" y="1420" />
            </Array>
          </mxGeometry>
        </mxCell>
        <mxCell id="yqwSmFySM0pPCRr0p7oi-325" value="Triple Back Tuck" style="whiteSpace=wrap;html=1;fillColor=#cce5ff;strokeColor=#36393d;" vertex="1" parent="1">
          <mxGeometry x="3600" y="1490" width="120" height="60" as="geometry" />
        </mxCell>
        <mxCell id="yqwSmFySM0pPCRr0p7oi-326" value="Triple Back Pike" style="whiteSpace=wrap;html=1;fillColor=#cce5ff;strokeColor=#36393d;" vertex="1" parent="1">
          <mxGeometry x="3860" y="1490" width="120" height="60" as="geometry" />
        </mxCell>
        <mxCell id="yqwSmFySM0pPCRr0p7oi-327" value="Cody With 3/2 Twist To Back" style="whiteSpace=wrap;html=1;fillColor=#cce5ff;strokeColor=#36393d;" vertex="1" parent="1">
          <mxGeometry x="2253" y="-320" width="120" height="60" as="geometry" />
        </mxCell>
        <mxCell id="yqwSmFySM0pPCRr0p7oi-328" value="Cody With 2/1 Twist to Stomach" style="whiteSpace=wrap;html=1;fillColor=#cce5ff;strokeColor=#36393d;" vertex="1" parent="1">
          <mxGeometry x="2416" y="-320" width="120" height="60" as="geometry" />
        </mxCell>
        <mxCell id="yqwSmFySM0pPCRr0p7oi-329" value="" style="edgeStyle=orthogonalEdgeStyle;rounded=0;orthogonalLoop=1;jettySize=auto;html=1;fillColor=#cce5ff;strokeColor=#36393d;" edge="1" parent="1" source="yqwSmFySM0pPCRr0p7oi-330" target="yqwSmFySM0pPCRr0p7oi-332">
          <mxGeometry relative="1" as="geometry" />
        </mxCell>
        <mxCell id="yqwSmFySM0pPCRr0p7oi-330" value="Cody With 3/2 Twist" style="whiteSpace=wrap;html=1;fillColor=#cce5ff;strokeColor=#36393d;" vertex="1" parent="1">
          <mxGeometry x="2253" y="-150" width="120" height="60" as="geometry" />
        </mxCell>
        <mxCell id="yqwSmFySM0pPCRr0p7oi-331" value="" style="edgeStyle=orthogonalEdgeStyle;rounded=0;orthogonalLoop=1;jettySize=auto;html=1;fillColor=#cce5ff;strokeColor=#36393d;" edge="1" parent="1" source="yqwSmFySM0pPCRr0p7oi-332" target="yqwSmFySM0pPCRr0p7oi-333">
          <mxGeometry relative="1" as="geometry" />
        </mxCell>
        <mxCell id="yqwSmFySM0pPCRr0p7oi-332" value="Cody With 2/1 Twist" style="whiteSpace=wrap;html=1;fillColor=#cce5ff;strokeColor=#36393d;" vertex="1" parent="1">
          <mxGeometry x="2416" y="-150" width="120" height="60" as="geometry" />
        </mxCell>
        <mxCell id="yqwSmFySM0pPCRr0p7oi-333" value="Cody With 5/2 Twist" style="whiteSpace=wrap;html=1;fillColor=#cce5ff;strokeColor=#36393d;" vertex="1" parent="1">
          <mxGeometry x="2580" y="-150" width="120" height="60" as="geometry" />
        </mxCell>
        <mxCell id="yqwSmFySM0pPCRr0p7oi-334" style="edgeStyle=orthogonalEdgeStyle;rounded=0;orthogonalLoop=1;jettySize=auto;html=1;entryX=0;entryY=0.5;entryDx=0;entryDy=0;fillColor=#cce5ff;strokeColor=#36393d;" edge="1" parent="1" source="yqwSmFySM0pPCRr0p7oi-335" target="yqwSmFySM0pPCRr0p7oi-191">
          <mxGeometry relative="1" as="geometry" />
        </mxCell>
        <mxCell id="yqwSmFySM0pPCRr0p7oi-335" value="Cody To Stomach" style="whiteSpace=wrap;html=1;fillColor=#cce5ff;strokeColor=#36393d;" vertex="1" parent="1">
          <mxGeometry x="1540" y="-320" width="120" height="60" as="geometry" />
        </mxCell>
        <mxCell id="yqwSmFySM0pPCRr0p7oi-336" value="" style="edgeStyle=orthogonalEdgeStyle;rounded=0;orthogonalLoop=1;jettySize=auto;html=1;fillColor=#cce5ff;strokeColor=#36393d;" edge="1" parent="1" source="yqwSmFySM0pPCRr0p7oi-338" target="yqwSmFySM0pPCRr0p7oi-191">
          <mxGeometry relative="1" as="geometry" />
        </mxCell>
        <mxCell id="yqwSmFySM0pPCRr0p7oi-337" style="edgeStyle=orthogonalEdgeStyle;rounded=0;orthogonalLoop=1;jettySize=auto;html=1;entryX=0.5;entryY=0;entryDx=0;entryDy=0;fillColor=#cce5ff;strokeColor=#36393d;" edge="1" parent="1" source="yqwSmFySM0pPCRr0p7oi-338" target="yqwSmFySM0pPCRr0p7oi-176">
          <mxGeometry relative="1" as="geometry" />
        </mxCell>
        <mxCell id="yqwSmFySM0pPCRr0p7oi-338" value="Back Layout With Twisting" style="ellipse;whiteSpace=wrap;html=1;fillColor=#cce5ff;strokeColor=#36393d;" vertex="1" parent="1">
          <mxGeometry x="1806" y="-233" width="120" height="60" as="geometry" />
        </mxCell>
        <mxCell id="yqwSmFySM0pPCRr0p7oi-339" value="Triple Front Tuck With 1/2 Twist Out" style="whiteSpace=wrap;html=1;fillColor=#cce5ff;strokeColor=#36393d;" vertex="1" parent="1">
          <mxGeometry x="3860" y="1240" width="120" height="60" as="geometry" />
        </mxCell>
        <mxCell id="yqwSmFySM0pPCRr0p7oi-340" value="Triple Front Pike With 1/2 Twist Out" style="whiteSpace=wrap;html=1;fillColor=#cce5ff;strokeColor=#36393d;" vertex="1" parent="1">
          <mxGeometry x="4000" y="1150" width="120" height="60" as="geometry" />
        </mxCell>
        <mxCell id="yqwSmFySM0pPCRr0p7oi-341" value="" style="edgeStyle=orthogonalEdgeStyle;rounded=0;orthogonalLoop=1;jettySize=auto;html=1;fillColor=#cce5ff;strokeColor=#36393d;" edge="1" parent="1" source="yqwSmFySM0pPCRr0p7oi-342" target="yqwSmFySM0pPCRr0p7oi-343">
          <mxGeometry relative="1" as="geometry" />
        </mxCell>
        <mxCell id="yqwSmFySM0pPCRr0p7oi-342" value="Triple Back With 1/2 Twist In (Arabian Triple)" style="whiteSpace=wrap;html=1;fillColor=#cce5ff;strokeColor=#36393d;" vertex="1" parent="1">
          <mxGeometry x="3860" y="1390" width="120" height="60" as="geometry" />
        </mxCell>
        <mxCell id="yqwSmFySM0pPCRr0p7oi-343" value="Triple Back With 1/1 Twist In" style="whiteSpace=wrap;html=1;fillColor=#cce5ff;strokeColor=#36393d;" vertex="1" parent="1">
          <mxGeometry x="4000" y="1390" width="120" height="60" as="geometry" />
        </mxCell>
        <mxCell id="yqwSmFySM0pPCRr0p7oi-344" value="" style="edgeStyle=orthogonalEdgeStyle;rounded=0;orthogonalLoop=1;jettySize=auto;html=1;fillColor=#cce5ff;strokeColor=#36393d;" edge="1" parent="1" source="yqwSmFySM0pPCRr0p7oi-345" target="yqwSmFySM0pPCRr0p7oi-347">
          <mxGeometry relative="1" as="geometry" />
        </mxCell>
        <mxCell id="yqwSmFySM0pPCRr0p7oi-345" value="Kaboom Back Tuck" style="whiteSpace=wrap;html=1;fillColor=#cce5ff;strokeColor=#36393d;" vertex="1" parent="1">
          <mxGeometry x="830" y="1050" width="120" height="60" as="geometry" />
        </mxCell>
        <mxCell id="yqwSmFySM0pPCRr0p7oi-346" value="" style="edgeStyle=orthogonalEdgeStyle;rounded=0;orthogonalLoop=1;jettySize=auto;html=1;fillColor=#cce5ff;strokeColor=#36393d;" edge="1" parent="1" source="yqwSmFySM0pPCRr0p7oi-347" target="yqwSmFySM0pPCRr0p7oi-349">
          <mxGeometry relative="1" as="geometry" />
        </mxCell>
        <mxCell id="yqwSmFySM0pPCRr0p7oi-347" value="Kaboom Back Tuck With 1/2 Twist" style="whiteSpace=wrap;html=1;fillColor=#cce5ff;strokeColor=#36393d;" vertex="1" parent="1">
          <mxGeometry x="980" y="1050" width="120" height="60" as="geometry" />
        </mxCell>
        <mxCell id="yqwSmFySM0pPCRr0p7oi-348" value="" style="edgeStyle=orthogonalEdgeStyle;rounded=0;orthogonalLoop=1;jettySize=auto;html=1;fillColor=#cce5ff;strokeColor=#36393d;" edge="1" parent="1" source="yqwSmFySM0pPCRr0p7oi-349" target="yqwSmFySM0pPCRr0p7oi-352">
          <mxGeometry relative="1" as="geometry" />
        </mxCell>
        <mxCell id="yqwSmFySM0pPCRr0p7oi-349" value="Kaboom Back Tuck With 1/1 Twist" style="whiteSpace=wrap;html=1;fillColor=#cce5ff;strokeColor=#36393d;" vertex="1" parent="1">
          <mxGeometry x="1140" y="1050" width="120" height="60" as="geometry" />
        </mxCell>
        <mxCell id="yqwSmFySM0pPCRr0p7oi-350" value="" style="edgeStyle=orthogonalEdgeStyle;rounded=0;orthogonalLoop=1;jettySize=auto;html=1;fillColor=#cce5ff;strokeColor=#36393d;" edge="1" parent="1" source="yqwSmFySM0pPCRr0p7oi-351" target="yqwSmFySM0pPCRr0p7oi-352">
          <mxGeometry relative="1" as="geometry" />
        </mxCell>
        <mxCell id="yqwSmFySM0pPCRr0p7oi-351" value="Kaboom Back Tuck With 3/2 Twist" style="whiteSpace=wrap;html=1;fillColor=#cce5ff;strokeColor=#36393d;" vertex="1" parent="1">
          <mxGeometry x="1140" y="1130" width="120" height="60" as="geometry" />
        </mxCell>
        <mxCell id="yqwSmFySM0pPCRr0p7oi-352" value="Kaboom Back Tuck With 2/1 Twist" style="whiteSpace=wrap;html=1;fillColor=#cce5ff;strokeColor=#36393d;" vertex="1" parent="1">
          <mxGeometry x="1140" y="1210" width="120" height="60" as="geometry" />
        </mxCell>
        <mxCell id="yqwSmFySM0pPCRr0p7oi-353" value="" style="edgeStyle=orthogonalEdgeStyle;rounded=0;orthogonalLoop=1;jettySize=auto;html=1;fillColor=#cce5ff;strokeColor=#36393d;" edge="1" parent="1" source="yqwSmFySM0pPCRr0p7oi-354" target="yqwSmFySM0pPCRr0p7oi-357">
          <mxGeometry relative="1" as="geometry" />
        </mxCell>
        <mxCell id="yqwSmFySM0pPCRr0p7oi-354" value="Kaboom Front To Back" style="whiteSpace=wrap;html=1;fillColor=#cce5ff;strokeColor=#36393d;" vertex="1" parent="1">
          <mxGeometry x="160" y="430" width="120" height="60" as="geometry" />
        </mxCell>
        <mxCell id="yqwSmFySM0pPCRr0p7oi-355" value="" style="edgeStyle=orthogonalEdgeStyle;rounded=0;orthogonalLoop=1;jettySize=auto;html=1;fillColor=#cce5ff;strokeColor=#36393d;" edge="1" parent="1" source="yqwSmFySM0pPCRr0p7oi-357" target="yqwSmFySM0pPCRr0p7oi-361">
          <mxGeometry relative="1" as="geometry">
            <Array as="points">
              <mxPoint x="220" y="290" />
            </Array>
          </mxGeometry>
        </mxCell>
        <mxCell id="yqwSmFySM0pPCRr0p7oi-356" style="edgeStyle=orthogonalEdgeStyle;rounded=0;orthogonalLoop=1;jettySize=auto;html=1;fillColor=#cce5ff;strokeColor=#36393d;" edge="1" parent="1" source="yqwSmFySM0pPCRr0p7oi-357" target="yqwSmFySM0pPCRr0p7oi-366">
          <mxGeometry relative="1" as="geometry" />
        </mxCell>
        <mxCell id="yqwSmFySM0pPCRr0p7oi-357" value="Kaboom Front&amp;nbsp;" style="whiteSpace=wrap;html=1;fillColor=#cce5ff;strokeColor=#36393d;" vertex="1" parent="1">
          <mxGeometry x="160" y="340" width="120" height="60" as="geometry" />
        </mxCell>
        <mxCell id="yqwSmFySM0pPCRr0p7oi-358" value="Front Drop To Back Drop" style="whiteSpace=wrap;html=1;fillColor=#cce5ff;strokeColor=#36393d;" vertex="1" parent="1">
          <mxGeometry x="500" y="460" width="120" height="60" as="geometry" />
        </mxCell>
        <mxCell id="yqwSmFySM0pPCRr0p7oi-359" value="Jump 2/1 Twist to Back Drop (Double Airplane)" style="whiteSpace=wrap;html=1;fillColor=#cce5ff;strokeColor=#36393d;" vertex="1" parent="1">
          <mxGeometry x="830" y="480" width="120" height="60" as="geometry" />
        </mxCell>
        <mxCell id="yqwSmFySM0pPCRr0p7oi-360" value="" style="edgeStyle=orthogonalEdgeStyle;rounded=0;orthogonalLoop=1;jettySize=auto;html=1;fillColor=#cce5ff;strokeColor=#36393d;" edge="1" parent="1" source="yqwSmFySM0pPCRr0p7oi-361" target="yqwSmFySM0pPCRr0p7oi-363">
          <mxGeometry relative="1" as="geometry" />
        </mxCell>
        <mxCell id="yqwSmFySM0pPCRr0p7oi-361" value="Kaboom Front With 1/2 Turn" style="whiteSpace=wrap;html=1;fillColor=#cce5ff;strokeColor=#36393d;" vertex="1" parent="1">
          <mxGeometry x="350" y="260" width="120" height="60" as="geometry" />
        </mxCell>
        <mxCell id="yqwSmFySM0pPCRr0p7oi-362" value="" style="edgeStyle=orthogonalEdgeStyle;rounded=0;orthogonalLoop=1;jettySize=auto;html=1;fillColor=#cce5ff;strokeColor=#36393d;" edge="1" parent="1" source="yqwSmFySM0pPCRr0p7oi-363" target="yqwSmFySM0pPCRr0p7oi-364">
          <mxGeometry relative="1" as="geometry" />
        </mxCell>
        <mxCell id="yqwSmFySM0pPCRr0p7oi-363" value="Kaboom Front With 1/1 Turn" style="whiteSpace=wrap;html=1;fillColor=#cce5ff;strokeColor=#36393d;" vertex="1" parent="1">
          <mxGeometry x="500" y="260" width="120" height="60" as="geometry" />
        </mxCell>
        <mxCell id="yqwSmFySM0pPCRr0p7oi-364" value="Kaboom Front 1/1 To Back" style="whiteSpace=wrap;html=1;fillColor=#cce5ff;strokeColor=#36393d;" vertex="1" parent="1">
          <mxGeometry x="650" y="260" width="120" height="60" as="geometry" />
        </mxCell>
        <mxCell id="yqwSmFySM0pPCRr0p7oi-365" value="" style="edgeStyle=orthogonalEdgeStyle;rounded=0;orthogonalLoop=1;jettySize=auto;html=1;fillColor=#cce5ff;strokeColor=#36393d;" edge="1" parent="1" source="yqwSmFySM0pPCRr0p7oi-366" target="yqwSmFySM0pPCRr0p7oi-368">
          <mxGeometry relative="1" as="geometry" />
        </mxCell>
        <mxCell id="yqwSmFySM0pPCRr0p7oi-366" value="Kaboom Front 1&amp;amp; 1/4 Tucked" style="whiteSpace=wrap;html=1;fillColor=#cce5ff;strokeColor=#36393d;" vertex="1" parent="1">
          <mxGeometry x="160" y="181" width="120" height="60" as="geometry" />
        </mxCell>
        <mxCell id="yqwSmFySM0pPCRr0p7oi-367" value="" style="edgeStyle=orthogonalEdgeStyle;rounded=0;orthogonalLoop=1;jettySize=auto;html=1;fillColor=#cce5ff;strokeColor=#36393d;" edge="1" parent="1" source="yqwSmFySM0pPCRr0p7oi-368" target="yqwSmFySM0pPCRr0p7oi-369">
          <mxGeometry relative="1" as="geometry" />
        </mxCell>
        <mxCell id="yqwSmFySM0pPCRr0p7oi-368" value="Kaboom Front 1 &amp;amp; 1/4 Piked" style="whiteSpace=wrap;html=1;fillColor=#cce5ff;strokeColor=#36393d;" vertex="1" parent="1">
          <mxGeometry x="350" y="181" width="120" height="60" as="geometry" />
        </mxCell>
        <mxCell id="yqwSmFySM0pPCRr0p7oi-369" value="Kaboom Front 1 &amp;amp;1/4 Straddled" style="whiteSpace=wrap;html=1;fillColor=#cce5ff;strokeColor=#36393d;" vertex="1" parent="1">
          <mxGeometry x="500" y="181" width="120" height="60" as="geometry" />
        </mxCell>
        <mxCell id="yqwSmFySM0pPCRr0p7oi-370" style="edgeStyle=orthogonalEdgeStyle;rounded=0;orthogonalLoop=1;jettySize=auto;html=1;entryX=0;entryY=0.5;entryDx=0;entryDy=0;fillColor=#cce5ff;strokeColor=#36393d;" edge="1" parent="1" source="yqwSmFySM0pPCRr0p7oi-371" target="yqwSmFySM0pPCRr0p7oi-361">
          <mxGeometry relative="1" as="geometry" />
        </mxCell>
        <mxCell id="yqwSmFySM0pPCRr0p7oi-371" value="Front Layout Twisting" style="ellipse;whiteSpace=wrap;html=1;fillColor=#cce5ff;strokeColor=#36393d;" vertex="1" parent="1">
          <mxGeometry x="20" y="250" width="120" height="80" as="geometry" />
        </mxCell>
        <mxCell id="yqwSmFySM0pPCRr0p7oi-372" value="" style="edgeStyle=orthogonalEdgeStyle;rounded=0;orthogonalLoop=1;jettySize=auto;html=1;fillColor=#cce5ff;strokeColor=#36393d;" edge="1" parent="1" source="yqwSmFySM0pPCRr0p7oi-373" target="yqwSmFySM0pPCRr0p7oi-374">
          <mxGeometry relative="1" as="geometry" />
        </mxCell>
        <mxCell id="yqwSmFySM0pPCRr0p7oi-373" value="Double Back Layout With 5/2 Twist" style="whiteSpace=wrap;html=1;fillColor=#cce5ff;strokeColor=#36393d;" vertex="1" parent="1">
          <mxGeometry x="3450" y="1400" width="120" height="60" as="geometry" />
        </mxCell>
        <mxCell id="yqwSmFySM0pPCRr0p7oi-374" value="Double Back Layout With 3/1 Twist" style="whiteSpace=wrap;html=1;fillColor=#cce5ff;strokeColor=#36393d;" vertex="1" parent="1">
          <mxGeometry x="3600" y="1400" width="120" height="60" as="geometry" />
        </mxCell>
      </root>
    </mxGraphModel>
  </diagram>
</mxfile>
